<?xml version="1.0" encoding="UTF-8" standalone="no"?>
<!-- Created with Inkscape (http://www.inkscape.org/) -->

<svg
   width="800"
   height="800"
   viewBox="0 0 211.66666 211.66667"
   version="1.1"
   id="svg6014"
   xml:space="preserve"
   inkscape:version="1.2.1 (9c6d41e, 2022-07-14)"
   sodipodi:docname="spiraldrawing.svg"
   xmlns:inkscape="http://www.inkscape.org/namespaces/inkscape"
   xmlns:sodipodi="http://sodipodi.sourceforge.net/DTD/sodipodi-0.dtd"
   xmlns="http://www.w3.org/2000/svg"
   xmlns:svg="http://www.w3.org/2000/svg"><sodipodi:namedview
     id="namedview6016"
     pagecolor="#ffffff"
     bordercolor="#000000"
     borderopacity="0.25"
     inkscape:showpageshadow="2"
     inkscape:pageopacity="0.0"
     inkscape:pagecheckerboard="0"
     inkscape:deskcolor="#d1d1d1"
     inkscape:document-units="mm"
     showgrid="false"
     inkscape:zoom="0.914906"
     inkscape:cx="392.93654"
     inkscape:cy="415.34322"
     inkscape:window-width="2006"
     inkscape:window-height="1326"
     inkscape:window-x="402"
     inkscape:window-y="25"
     inkscape:window-maximized="0"
     inkscape:current-layer="svg6014" /><defs
     id="defs6011" /><g
     inkscape:groupmode="layer"
     id="layer2"
     inkscape:label="SilkS"><path
       style="display:inline;fill:#000000;stroke-width:0.0561624"
       d="m 99.384172,208.97057 c -0.07715,-0.11545 -0.140332,-0.23388 -0.140407,-0.26318 0,-0.0293 0.408775,-0.14477 0.908545,-0.25662 l 0.90866,-0.20337 -0.24299,0.34087 c -0.24208,0.33961 -0.24473,0.34132 -0.71209,0.46213 -0.258013,0.0667 -0.494385,0.12325 -0.525272,0.12568 -0.03088,0.002 -0.119289,-0.0901 -0.196446,-0.20551 z m -3.509073,-5.10407 c -0.04701,-0.0728 -0.124051,-0.19218 -0.171225,-0.26527 l -0.08577,-0.13288 0.801847,-0.12446 c 1.73287,-0.26896 3.772649,-0.74261 5.477679,-1.27197 1.40613,-0.43655 2.48281,-0.84646 4.4423,-1.69125 0.0418,-0.0181 -0.0593,0.17176 -0.22464,0.42171 l -0.30064,0.45448 -0.73011,0.28973 c -3.09471,1.22813 -5.423143,1.85745 -8.998827,2.43218 -0.08414,0.0135 -0.153157,-0.0233 -0.21061,-0.11227 z m -3.334355,-5.11639 c -0.09426,-0.1449 -0.166319,-0.26836 -0.160149,-0.27437 0.0062,-0.006 0.352412,-0.039 0.769423,-0.0732 4.338576,-0.35651 8.267752,-1.44776 12.074922,-3.35358 3.60327,-1.80374 6.44204,-3.91895 9.22255,-6.87184 2.05075,-2.1779 3.79878,-4.67964 5.17996,-7.41345 0.69703,-1.37966 1.40877,-3.07696 1.74835,-4.16938 0.0551,-0.17723 0.10701,-0.31542 0.11536,-0.30706 0.008,0.008 0.0679,0.25162 0.13223,0.54061 l 0.11703,0.52542 -0.24952,0.6523 c -0.74495,1.94738 -2.05215,4.52912 -3.03754,5.99917 -0.12855,0.19178 -0.88928,1.07462 -1.6905,1.96188 -1.66967,1.84897 -2.63195,2.97276 -3.33609,3.89606 -0.50694,0.66471 -0.87897,1.02609 -1.92477,1.86964 -2.9494,2.37901 -6.38979,4.2833 -9.92006,5.49085 -2.912092,0.99609 -5.168742,1.46195 -8.524507,1.75976 l -0.345321,0.0306 z m -3.126839,-4.79328 c -0.09195,-0.13507 -0.183839,-0.27134 -0.204204,-0.30281 -0.02484,-0.0384 0.502263,-0.058 1.600632,-0.0594 2.150623,-0.003 3.597406,-0.14914 5.625185,-0.56879 5.331422,-1.10332 10.344382,-3.85391 14.122882,-7.74913 2.0876,-2.15208 3.6443,-4.35977 4.94452,-7.01225 0.90469,-1.84561 1.50803,-3.48302 1.973,-5.3546 0.13169,-0.53003 0.25336,-0.96331 0.27038,-0.96285 0.017,6.3e-4 0.13048,0.085 0.25212,0.18794 l 0.22116,0.1871 -0.18664,0.75258 c -0.50725,2.04537 -1.21381,3.91004 -2.24319,5.91993 -3.62976,7.08724 -10.15777,12.28953 -17.930304,14.28901 -2.285457,0.58792 -4.126726,0.8321 -6.676423,0.88538 l -1.601946,0.0335 z m -42.699524,-2.48647 c -1.470336,-2.45481 -2.56647,-4.63478 -3.590327,-7.14038 -0.794345,-1.94392 -0.784788,-1.90903 -0.824454,-3.01079 l -0.03518,-0.97675 0.384251,1.09517 c 1.30162,3.70983 2.978015,7.21759 4.962629,10.38402 0.181841,0.29013 0.323692,0.53327 0.315218,0.54031 -0.0085,0.007 -0.132244,0.0638 -0.275067,0.1261 l -0.259676,0.11331 z m 5.812386,-2.4502 c -5.979408,-9.57679 -8.222897,-20.87163 -6.352122,-31.97975 0.2519,-1.49573 0.899507,-4.41022 1.002938,-4.51365 0.02739,-0.0274 0.432408,0.0948 0.492077,0.14843 0.0216,0.0194 -0.06045,0.42707 -0.182469,0.90586 -0.622255,2.44221 -1.044826,5.06385 -1.267353,7.86273 -0.110989,1.39604 -0.127867,4.84084 -0.03001,6.12171 0.434756,5.68927 1.628574,10.54363 3.798267,15.44468 0.901007,2.03525 2.284896,4.59875 3.295804,6.10512 0.149353,0.22256 0.271549,0.41791 0.271549,0.43412 0,0.0351 -0.424283,0.25641 -0.491492,0.25641 -0.02565,0 -0.267415,-0.35355 -0.537215,-0.78566 z m 36.761256,0.66915 c -0.853996,-0.0544 -1.511271,-0.13032 -2.466563,-0.2849 l -0.740385,-0.1198 -0.293303,-0.36601 c -0.252205,-0.31473 -0.274376,-0.36079 -0.158206,-0.32873 0.07429,0.0205 0.463637,0.0983 0.865196,0.17293 4.803508,0.89237 9.656232,0.28913 14.099848,-1.75275 1.82455,-0.83841 3.54315,-1.92656 5.19196,-3.28733 0.75683,-0.62463 2.4471,-2.35535 3.10928,-3.18371 2.63757,-3.29947 4.31843,-7.21566 4.84963,-11.29904 l 0.0939,-0.72191 0.24194,0.23744 c 0.2923,0.28688 0.29284,0.29476 0.0988,1.44434 -1.25837,7.4536 -6.18156,13.94535 -13.04826,17.20548 -3.691752,1.75275 -7.786758,2.54244 -11.843817,2.28399 z m -31.677968,-3.49193 c -2.646548,-4.17192 -4.493483,-8.76228 -5.451526,-13.54919 -1.202466,-6.00822 -1.007141,-12.30683 0.565618,-18.23876 l 0.174973,-0.65991 H 53.203 c 0.263537,0 0.299852,0.0131 0.273523,0.0983 -0.01669,0.054 -0.143688,0.54057 -0.282208,1.08113 -1.892527,7.3859 -1.623755,15.0638 0.779534,22.26842 1.094017,3.27967 2.61553,6.42777 4.410896,9.1264 0.17468,0.26256 0.335645,0.508 0.357703,0.54543 0.0376,0.0638 -0.326213,0.29701 -0.463251,0.29701 -0.03001,0 -0.331125,-0.43596 -0.669142,-0.96881 z m 32.085971,-0.53055 c -2.098917,-0.11143 -4.487319,-0.65839 -6.521393,-1.49344 -6.4871,-2.66316 -11.217092,-8.60045 -12.402829,-15.56854 -0.235203,-1.38221 -0.28242,-2.00007 -0.279008,-3.65092 0.0037,-1.69705 0.09328,-2.64127 0.392382,-4.12691 0.681382,-3.38456 2.192112,-6.55111 4.44591,-9.3188 0.683605,-0.83947 2.212869,-2.34756 3.08835,-3.04558 3.315379,-2.64335 6.981413,-4.16421 11.304667,-4.68976 1.128502,-0.13718 3.625161,-0.13691 4.801889,6.3e-4 1.662841,0.19419 3.081402,0.50764 4.605325,1.01762 1.352401,0.45258 1.287981,0.41556 1.371311,0.78793 0.039,0.1741 0.0623,0.32494 0.0518,0.33521 -0.0105,0.0103 -0.23387,-0.0683 -0.49643,-0.17463 -0.689567,-0.27921 -2.058296,-0.71483 -2.867273,-0.91256 -6.416473,-1.5683 -13.217241,-0.0611 -18.390219,4.07557 -1.359104,1.08684 -2.973084,2.81221 -3.994314,4.26996 -3.518854,5.02296 -4.651465,11.33802 -3.074087,17.14014 1.76517,6.49288 6.572631,11.63435 12.881216,13.77614 2.910246,0.98804 6.019491,1.27455 9.032558,0.83232 4.134303,-0.60679 7.888289,-2.48712 10.821559,-5.42039 2.9858,-2.9858 4.80274,-6.67626 5.39223,-10.95238 0.11695,-0.8483 0.16666,-2.87786 0.09,-3.67471 -0.034,-0.35307 -0.055,-0.64873 -0.0467,-0.65704 0.008,-0.008 0.1596,0.1633 0.33622,0.38132 l 0.32113,0.39639 v 1.13116 c 0,1.31825 -0.0609,2.08999 -0.25886,3.2934 -0.31243,1.89911 -0.83022,3.5078 -1.70827,5.30735 -3.45845,7.088 -10.850674,11.36782 -18.897028,10.94064 z M 62.499144,183.8624 c -3.997371,-6.05337 -5.954523,-13.05737 -5.68176,-20.33325 0.113019,-3.01486 0.605893,-6.00127 1.447169,-8.7687 l 0.162192,-0.53355 0.296832,-0.0429 c 0.163256,-0.0236 0.304659,-0.0351 0.314216,-0.0255 0.0095,0.01 -0.05803,0.25633 -0.150213,0.54836 -0.627789,1.98901 -1.096613,4.30982 -1.383596,6.84926 -0.141777,1.25453 -0.14182,5.25207 0,6.54293 0.641729,5.8441 2.428466,10.84619 5.55259,15.54486 0.303626,0.45667 0.552058,0.84968 0.552058,0.87337 0,0.0237 -0.110479,0.0967 -0.245506,0.16234 l -0.245494,0.11927 -0.618413,-0.93647 z m 4.892532,-1.59758 c -3.162962,-4.36332 -5.004941,-9.31348 -5.532394,-14.86782 -0.107503,-1.132 -0.09246,-4.07185 0.0269,-5.2593 0.294187,-2.92662 0.969013,-5.73498 1.991986,-8.2899 l 0.207771,-0.51891 0.29923,-0.0474 c 0.164582,-0.0261 0.3102,-0.0364 0.323592,-0.023 0.01339,0.0134 -0.11244,0.36529 -0.279656,0.78199 -2.32704,5.79922 -2.722702,12.22905 -1.125246,18.28595 0.919368,3.48584 2.59552,6.96611 4.723574,9.80775 0.229057,0.30587 0.39631,0.57411 0.371662,0.59609 -0.05522,0.0492 -0.403962,0.16804 -0.488448,0.1664 -0.03399,-6.2e-4 -0.26754,-0.28498 -0.518973,-0.63182 z m 21.967373,-0.2689 c -5.03393,-0.51634 -9.498966,-3.20626 -12.300196,-7.41013 -1.556272,-2.33552 -2.490383,-4.96284 -2.781525,-7.82343 -0.100399,-0.98643 -0.04202,-3.28549 0.107976,-4.2515 0.844426,-5.43866 4.120407,-10.11937 8.956514,-12.79701 3.706745,-2.05235 8.167181,-2.72041 12.391673,-1.85598 2.022705,0.41389 3.939538,1.1576 5.739989,2.22705 0.42823,0.25438 0.43438,0.26132 0.60404,0.6831 0.0943,0.23435 0.17128,0.44432 0.17111,0.46657 0,0.0222 -0.24671,-0.11895 -0.54788,-0.31379 -2.325083,-1.50414 -4.941945,-2.44001 -7.708298,-2.75674 -0.992497,-0.11364 -2.883555,-0.11358 -3.875212,0 -6.443251,0.73873 -11.877942,4.89346 -14.201981,10.85716 -0.530031,1.36013 -0.928595,3.02881 -1.072992,4.49236 -0.0739,0.74906 -0.07369,2.4155 5.54e-4,3.16128 0.572379,5.76131 4.025723,10.73487 9.180945,13.22249 1.487545,0.71781 2.980344,1.17958 4.6394,1.43511 1.086963,0.16741 3.316767,0.18279 4.346595,0.0299 3.477127,-0.51597 6.582468,-2.04996 8.957219,-4.42472 2.37852,-2.37852 3.83006,-5.27256 4.36277,-8.69838 0.12485,-0.80295 0.14266,-3.12158 0.03,-3.90329 -0.24796,-1.72012 -0.71915,-3.26378 -1.44003,-4.71765 -0.75382,-1.5203 -1.59758,-2.70516 -2.75365,-3.86685 -2.338006,-2.34937 -5.403483,-3.82512 -8.706988,-4.19162 -0.650427,-0.0722 -2.270017,-0.0722 -2.920444,0 -4.801435,0.53269 -8.930926,3.38746 -11.006881,7.60917 -0.684552,1.39213 -1.070054,2.61058 -1.297156,4.09986 -0.143458,0.94077 -0.144653,2.82817 -0.0025,3.76289 0.441791,2.90251 1.701878,5.41096 3.738678,7.44253 1.475329,1.47155 3.090661,2.47624 5.006025,3.1136 1.528174,0.50851 2.715568,0.6786 4.417377,0.63273 1.431667,-0.0386 2.428946,-0.2197 3.759242,-0.68275 3.775698,-1.31423 6.780417,-4.5444 7.766007,-8.3487 0.32307,-1.24702 0.36476,-1.59568 0.36543,-3.05602 6.2e-4,-1.43874 -0.0418,-1.81052 -0.34011,-2.9766 -0.69857,-2.73095 -2.44651,-5.1838 -4.806824,-6.7453 -2.855284,-1.88896 -6.459177,-2.38854 -9.641278,-1.33647 -0.703814,0.23269 -1.912855,0.80388 -2.491149,1.17688 -4.556445,2.93896 -6.231563,8.70522 -3.91479,13.47589 1.383914,2.84974 3.971708,4.856 7.095969,5.50132 2.847689,0.58821 5.958938,-0.24896 8.216123,-2.21078 1.197056,-1.04041 2.267271,-2.6617 2.728189,-4.13297 0.34099,-1.08845 0.40463,-1.53738 0.40207,-2.83621 -0.003,-1.34567 -0.0677,-1.77061 -0.44225,-2.89 -0.863163,-2.57953 -2.959041,-4.68297 -5.508595,-5.52849 -0.997018,-0.33064 -1.578219,-0.42033 -2.72388,-0.42033 -1.177133,0 -1.72434,0.0886 -2.760258,0.44681 -3.368442,1.16485 -5.626561,4.42675 -5.479056,7.91463 0.08478,2.0047 0.854587,3.76969 2.254931,5.17003 2.836027,2.83603 7.289347,2.94825 10.15263,0.25584 1.093999,-1.02872 1.834091,-2.40391 2.08743,-3.87874 0.570243,-3.31971 -1.496877,-6.59293 -4.702412,-7.44611 -1.449734,-0.38587 -2.908428,-0.244 -4.277145,0.41595 -1.586405,0.76493 -2.730292,2.15756 -3.180836,3.87255 -0.165012,0.62811 -0.201016,1.69412 -0.07903,2.34 0.235913,1.24915 0.786663,2.26673 1.678213,3.10073 0.48117,0.45012 0.776664,0.64918 1.406527,0.94755 1.821459,0.86283 3.892633,0.61108 5.466779,-0.6645 0.55806,-0.45221 0.998879,-1.02592 1.33755,-1.74076 0.631837,-1.33366 0.579745,-2.98235 -0.134423,-4.25398 -1.166506,-2.07707 -3.695078,-2.90222 -5.762722,-1.88058 -1.0275,0.5077 -1.834465,1.49187 -2.142274,2.61271 -0.158923,0.57868 -0.135177,1.53269 0.05236,2.10408 0.194902,0.59379 0.493658,1.08627 0.920974,1.51819 0.427365,0.43195 0.860247,0.70134 1.439362,0.89575 1.253955,0.42093 2.540546,0.1213 3.46726,-0.80752 0.66682,-0.66833 0.949252,-1.34784 0.947808,-2.28037 -0.0025,-1.44943 -1.055224,-2.68879 -2.470535,-2.90786 -1.389935,-0.21515 -2.739351,0.75545 -2.983463,2.14591 -0.167876,0.9562 0.382894,2.01707 1.27201,2.45007 0.303445,0.14777 0.392855,0.16416 0.898598,0.16466 0.501173,6.3e-4 0.595863,-0.0162 0.879715,-0.15563 0.654773,-0.32154 1.056419,-0.90182 1.101662,-1.59162 0.03549,-0.54121 -0.08409,-0.88822 -0.440508,-1.27819 -0.370778,-0.40569 -0.728244,-0.55981 -1.227743,-0.52933 -0.418736,0.0255 -0.692944,0.13915 -0.955497,0.39584 -0.555675,0.54327 -0.571868,1.33567 -0.03735,1.82836 0.530678,0.48916 1.201881,0.42472 1.591044,-0.15276 0.127145,-0.18868 0.173068,-0.57627 0.08472,-0.71511 -0.02273,-0.0357 -0.04128,0.0654 -0.04128,0.22465 0,0.34892 -0.151128,0.59353 -0.456098,0.73825 -0.42536,0.20185 -1.012376,-0.002 -1.232848,-0.42855 -0.122501,-0.23689 -0.113399,-0.7356 0.01806,-0.9889 0.154303,-0.29735 0.447855,-0.51071 0.802974,-0.58366 0.519814,-0.10677 0.98497,0.0914 1.314215,0.55984 0.23506,0.33445 0.271724,0.91628 0.08507,1.35016 -0.43968,1.02206 -1.879652,1.20687 -2.661396,0.34158 -0.551392,-0.61032 -0.622958,-1.53034 -0.174326,-2.24102 0.19941,-0.31589 0.622081,-0.65893 0.976267,-0.79234 0.46665,-0.17577 1.260317,-0.13782 1.684165,0.0805 0.821565,0.42327 1.251626,1.14033 1.250548,2.0851 -0.0019,1.5148 -1.317608,2.6255 -2.886693,2.4366 -1.664523,-0.20039 -2.765818,-1.83996 -2.368393,-3.52598 0.318997,-1.35324 1.495203,-2.32177 2.918353,-2.40307 1.67213,-0.0955 3.102987,0.96424 3.540059,2.62193 0.124686,0.47291 0.12732,1.31558 0.0056,1.79719 -0.274457,1.08609 -1.023378,2.01602 -2.004992,2.48961 -1.691038,0.81587 -3.544803,0.46405 -4.846648,-0.91982 -1.111966,-1.18203 -1.448197,-2.898 -0.88157,-4.4992 0.710899,-2.00892 2.824385,-3.28585 5.000247,-3.02107 2.170819,0.26418 3.831581,1.77569 4.363622,3.97147 0.132419,0.54649 0.131573,1.70831 -0.0019,2.28791 -0.227203,0.98833 -0.677081,1.82634 -1.377832,2.56655 -0.784651,0.82884 -1.687763,1.35444 -2.796747,1.62768 -0.637496,0.15707 -1.905702,0.17103 -2.532514,0.0278 -1.125514,-0.25706 -2.086459,-0.78046 -2.905334,-1.58246 -0.749587,-0.73415 -1.24964,-1.54468 -1.56002,-2.52865 -0.319794,-1.01381 -0.351036,-2.42213 -0.07693,-3.46823 0.968796,-3.69738 4.973956,-5.75014 8.687612,-4.45266 2.362577,0.82544 4.135075,2.95696 4.574058,5.50056 0.110255,0.63883 0.109862,1.76664 -6.23e-4,2.44975 -0.437158,2.69755 -2.409047,4.99253 -5.042321,5.86851 -0.97918,0.32573 -1.411059,0.39324 -2.508861,0.39218 -1.415592,-0.001 -2.292493,-0.19714 -3.510151,-0.78365 -2.414371,-1.16294 -4.094202,-3.48666 -4.498451,-6.22273 -0.129779,-0.87836 -0.08188,-2.19665 0.109614,-3.0172 0.188402,-0.80723 0.332003,-1.21472 0.682839,-1.9376 1.198289,-2.46902 3.397959,-4.156 6.18906,-4.74654 1.219581,-0.25804 2.874378,-0.20122 4.144109,0.14227 3.228048,0.87327 5.76843,3.45699 6.59955,6.71216 0.28912,1.13238 0.36992,2.74613 0.19535,3.90149 -0.61591,4.07616 -3.780059,7.38123 -7.875226,8.22596 -2.254987,0.46515 -4.580752,0.17261 -6.673006,-0.83932 -4.615349,-2.23227 -6.97452,-7.47549 -5.646951,-12.55025 1.069157,-4.08697 4.511619,-7.32486 8.684965,-8.16886 1.687863,-0.34135 3.57216,-0.31026 5.188182,0.0856 4.262321,1.0441 7.623486,4.3521 8.763886,8.62524 0.56668,2.12346 0.53448,4.61114 -0.0873,6.74096 -1.66924,5.71784 -7.174061,9.5187 -13.232781,9.1367 -2.363008,-0.14899 -4.588752,-0.8993 -6.559471,-2.21125 -3.203635,-2.13273 -5.309176,-5.46597 -5.92627,-9.38175 -0.139715,-0.88658 -0.170148,-2.60344 -0.06249,-3.52601 0.213038,-1.82576 0.651666,-3.3048 1.446179,-4.87649 1.862867,-3.6851 5.15247,-6.32503 9.232141,-7.40886 1.314776,-0.3493 1.915353,-0.41683 3.706734,-0.41683 1.435838,0 1.714528,0.0149 2.353369,0.12618 1.233421,0.21476 2.304596,0.52409 3.422165,0.98823 2.590064,1.07569 5.006404,3.06092 6.603994,5.42575 1.32796,1.96571 2.14861,4.09314 2.51852,6.52896 0.13554,0.89254 0.13554,3.40374 0,4.29629 -0.54738,3.60439 -2.11415,6.67104 -4.68527,9.17046 -2.433951,2.3661 -5.462066,3.86032 -8.879674,4.38169 -0.883948,0.13484 -3.112351,0.19437 -3.972741,0.10612 z m 2.126403,-16.25571 c -0.01781,-0.0463 -0.05796,-0.0842 -0.08936,-0.0842 -0.03287,0 -0.02739,0.0357 0.01289,0.0842 0.03848,0.0463 0.07867,0.0842 0.08936,0.0842 0.01071,0 0.005,-0.0379 -0.01289,-0.0842 z M 73.04385,181.41315 c -0.166076,-0.0458 -0.300873,-0.052 -0.393135,-0.0182 -0.164681,0.0603 -0.245413,-0.0215 -1.082412,-1.09796 -1.004874,-1.2923 -1.813639,-2.56464 -2.541516,-3.99828 -3.615355,-7.12086 -3.604136,-15.59899 0.03013,-22.76987 0.243763,-0.48099 0.594612,-1.12986 0.779652,-1.44193 l 0.336436,-0.56741 0.43389,-0.17672 c 0.238639,-0.0972 0.440278,-0.17033 0.448079,-0.16253 0.0078,0.008 -0.202641,0.36794 -0.467653,0.80028 -3.128969,5.10475 -4.319344,11.04612 -3.381286,16.87665 0.719211,4.47026 2.659535,8.62012 5.652373,12.08897 0.259845,0.30117 0.464734,0.5451 0.455308,0.54207 -0.0094,-0.003 -0.130857,-0.0369 -0.269863,-0.0751 z m -33.437112,-19.51171 -0.273174,-0.27796 0.03742,-0.52511 c 0.08079,-1.13327 0.268356,-2.88205 0.426799,-3.9791 0.275577,-1.90813 0.264701,-1.86923 0.703571,-2.51635 0.211756,-0.31224 0.392463,-0.56025 0.401565,-0.55114 0.0091,0.009 -0.04439,0.31759 -0.118834,0.68554 -0.410542,2.0286 -0.750701,4.7799 -0.890255,7.20063 l -0.01395,0.24144 z M 84.84451,140.9602 c 0.04271,-0.0599 0.191963,-0.23887 0.33161,-0.39768 l 0.253912,-0.28873 0.70085,-0.16673 c 1.210554,-0.28798 2.590185,-0.50542 3.95577,-0.62342 0.872275,-0.0754 3.276952,-0.0739 4.212233,0.002 1.508078,0.12337 3.734488,0.50951 4.789313,0.83065 l 0.323168,0.0984 0.0396,0.27684 c 0.02179,0.15227 0.02895,0.28749 0.01594,0.30049 -0.01301,0.013 -0.258102,-0.0409 -0.54468,-0.11975 -1.16828,-0.3215 -2.484375,-0.57433 -3.918875,-0.75283 -1.167215,-0.14525 -4.511693,-0.14595 -5.644329,-0.001 -1.422958,0.18186 -3.001674,0.48865 -3.987535,0.77489 -0.216226,0.0628 -0.440738,0.12792 -0.498926,0.14476 -0.09496,0.0274 -0.09784,0.0195 -0.02808,-0.0783 z m 13.697103,-4.98984 c -0.909095,-0.22239 -2.760874,-0.482 -4.196899,-0.58837 -1.071759,-0.0794 -4.043592,-0.0444 -5.002843,0.0588 -0.349236,0.0376 -0.650048,0.0533 -0.668483,0.0349 -0.01843,-0.0184 0.04084,-0.15391 0.131772,-0.30106 l 0.165292,-0.26757 0.390863,-0.0415 c 1.426586,-0.15157 4.463878,-0.13221 6.091362,0.0389 1.243601,0.1307 3.455349,0.49576 3.545712,0.58524 0.01955,0.0194 0.05267,0.15527 0.07364,0.30199 0.03617,0.25338 0.03157,0.26646 -0.09171,0.26056 -0.0714,-0.003 -0.26881,-0.0402 -0.438703,-0.0818 z m 0.140407,-5.17329 c -1.705339,-0.32367 -3.716084,-0.516 -5.878841,-0.5623 l -1.610494,-0.0345 0.09579,-0.25819 0.0958,-0.25819 0.840747,-0.0178 c 1.667131,-0.0353 4.069299,0.15499 6.021738,0.47709 l 0.912638,0.15057 -0.0037,0.20054 c -0.0073,0.37331 -0.02895,0.38715 -0.473437,0.30279 z m 0.641188,-5.48831 c -0.01289,-0.0124 -0.566776,-0.0997 -1.230894,-0.19392 -1.37409,-0.195 -2.788685,-0.32268 -4.200778,-0.37918 l -0.971422,-0.0388 0.03493,-0.17416 c 0.07701,-0.38432 0.05933,-0.37074 0.481767,-0.37074 1.038557,0 3.369669,0.19327 4.739774,0.39297 1.709261,0.24912 1.61317,0.22728 1.577901,0.35869 -0.01756,0.0654 -0.03225,0.18836 -0.03269,0.27331 -6.23e-4,0.13744 -0.02135,0.15445 -0.187973,0.15445 -0.10297,0 -0.197741,-0.0101 -0.21061,-0.0225 z m 0.510138,-5.96381 c -1.154794,-0.21151 -3.160453,-0.41357 -5.57412,-0.56155 -0.547089,-0.0336 -0.547587,-0.0337 -0.546815,-0.18278 5.48e-4,-0.0821 0.0165,-0.20808 0.0358,-0.28004 0.03493,-0.1305 0.03673,-0.13074 0.715301,-0.0945 1.965345,0.10497 3.736449,0.28255 5.412589,0.54268 l 0.800949,0.12431 -0.0331,0.20039 c -0.0647,0.39159 -0.0576,0.38942 -0.810619,0.2515 z m 80.259164,-0.91572 -0.58669,-0.034 0.41821,-0.13221 c 1.57961,-0.49938 4.20442,-1.58224 6.22606,-2.56854 0.72318,-0.35281 1.32323,-0.6331 1.33347,-0.62286 0.0102,0.0102 -0.0345,0.17584 -0.0994,0.36802 l -0.118,0.34941 -0.82233,0.41154 c -1.09464,0.54781 -2.52202,1.17712 -3.99552,1.76156 -1.3131,0.52082 -1.33895,0.52595 -2.35582,0.46706 z m -5.09283,-4.94755 c -0.0489,-0.23896 -0.0444,-0.28386 0.031,-0.30535 2.15948,-0.61524 3.41533,-1.0248 4.81897,-1.57156 8.28649,-3.22783 15.324,-8.68988 20.5068,-15.916001 1.13262,-1.57916 2.09994,-3.14184 3.07746,-4.97154 0.26701,-0.49977 0.49196,-0.91689 0.49989,-0.92692 0.008,-0.01 0.11896,0.0509 0.24673,0.13549 0.16056,0.10625 0.22213,0.18127 0.19934,0.24289 -0.0827,0.22365 -1.05498,1.98032 -1.58346,2.86095 -2.77029,4.61632 -6.38846,8.759891 -10.57583,12.111601 -4.85805,3.88853 -10.3388,6.70425 -16.337,8.39308 -0.44444,0.12514 -0.81222,0.22752 -0.81731,0.22752 -0.005,0 -0.0351,-0.12607 -0.0666,-0.28016 z m -73.81843,-0.39711 c -1.896749,-0.32468 -4.282088,-0.57269 -6.391564,-0.66457 -0.62721,-0.0273 -1.149259,-0.0588 -1.160117,-0.07 -0.01083,-0.0112 -0.03798,-0.14284 -0.06027,-0.29258 l -0.04053,-0.27226 0.751356,0.0359 c 2.931856,0.14021 4.53928,0.29949 6.947195,0.68838 1.39489,0.22528 1.29792,0.17364 1.1343,0.60401 -0.0647,0.17023 -0.009,0.1716 -1.18035,-0.0289 z m 71.95872,-5.18616 -0.12378,-0.25479 0.23712,-0.0618 c 11.07897,-2.88521 20.11518,-10.063961 25.35347,-20.141881 l 0.43756,-0.84183 0.16849,0.10509 c 0.0927,0.0578 0.20234,0.12532 0.24371,0.15002 0.0846,0.0505 -0.19046,0.6339 -0.91693,1.94486 -2.6975,4.86789 -6.46223,9.18524 -10.95241,12.560111 -3.79751,2.85424 -8.29412,5.09448 -12.88929,6.42151 -1.49864,0.43279 -1.40865,0.42593 -1.55794,0.11867 z m -69.03828,-1.24626 c -2.96106,-0.60465 -6.448838,-0.98712 -9.940752,-1.09009 -0.97301,-0.0287 -1.772436,-0.053 -1.776489,-0.0542 -0.0277,-0.007 -0.132525,-0.52666 -0.110734,-0.54845 0.03748,-0.0375 3.639462,0.0831 4.611102,0.15429 1.976727,0.1449 4.166793,0.41086 6.009383,0.72978 0.9412,0.16291 2.61768,0.49199 2.64419,0.51905 0.007,0.008 -0.0499,0.1213 -0.12754,0.25258 -0.1002,0.16943 -0.17616,0.23688 -0.26181,0.23245 -0.0664,-0.003 -0.53767,-0.0914 -1.04735,-0.19547 z m 2.21212,-2.44727 c -0.72998,-1.13754 -1.66361,-2.74659 -2.75381,-4.746031 -0.21815,-0.40008 -0.0894,-0.35314 -1.50824,-0.54989 -1.46129,-0.20266 -2.868959,-0.3538 -4.184096,-0.44928 -0.633231,-0.046 -1.315896,-0.0965 -1.517017,-0.11219 l -0.365692,-0.0286 -0.638392,0.76139 c -0.871111,1.038941 -2.073197,2.370021 -2.96085,3.278561 l -0.738773,0.75616 -0.100387,-0.31844 -0.10038,-0.31846 0.725555,-0.74783 c 0.6736,-0.69428 1.899725,-2.052241 2.710525,-3.001971 l 0.344237,-0.40323 -0.308226,-0.0385 c -0.169526,-0.0212 -1.41802,-0.0288 -2.774434,-0.017 l -2.466208,0.0215 -0.119736,-0.24645 c -0.06585,-0.13555 -0.103836,-0.26234 -0.08441,-0.28178 0.01942,-0.0194 1.431262,-0.0353 3.137417,-0.0353 h 3.102097 l 0.333186,-0.4168 c 1.093369,-1.36773 2.438963,-3.2091 3.447685,-4.71796 l 0.579219,-0.86641 -0.08799,-0.25684 c -0.04838,-0.14126 -0.318592,-0.92657 -0.600433,-1.74514 -0.522086,-1.51634 -1.309639,-4.10129 -1.263561,-4.14737 0.01401,-0.014 0.156065,0.01 0.315735,0.0532 l 0.290302,0.0786 0.379014,1.26365 c 0.390639,1.30245 0.712967,2.29069 1.122911,3.44287 l 0.23583,0.66282 0.12465,-0.18544 c 0.40602,-0.60404 1.87115,-3.14437 2.41718,-4.19104 l 0.21452,-0.4112 0.28578,0.0385 c 0.15718,0.0212 0.29467,0.0466 0.30554,0.0565 0.053,0.0486 -1.67077,3.12147 -2.51899,4.49028 -0.26797,0.43246 -0.50498,0.81709 -0.52667,0.85475 -0.0781,0.13567 1.30136,3.38241 2.40821,5.66783 l 0.57494,1.18714 0.41451,0.0674 c 1.00892,0.16402 3.29783,0.64147 4.5917,0.9578 1.5476,0.37835 1.49972,0.34984 1.14853,0.683891 l -0.15979,0.152 -0.53303,-0.1368 c -1.3175,-0.338121 -5.0432,-1.121771 -5.09474,-1.071611 -0.0436,0.0425 2.00446,3.585091 2.73659,4.733501 0.0683,0.10719 0.0645,0.14773 -0.0313,0.32705 -0.19254,0.36061 -0.22047,0.35546 -0.50871,-0.0937 z m -3.2792,-5.738551 c 0,-0.0106 -0.23704,-0.50978 -0.52676,-1.10921 -0.61398,-1.27036 -1.24482,-2.6876 -1.76009,-3.95416 -0.20106,-0.49424 -0.37744,-0.91857 -0.39196,-0.94296 -0.0145,-0.0244 -0.3066,0.36733 -0.649089,0.87052 -0.771813,1.13395 -1.861404,2.63137 -2.668139,3.66683 l -0.612592,0.78627 1.015695,0.0673 c 1.581985,0.10481 4.572015,0.44245 5.550805,0.62681 0.0232,0.004 0.0422,-6.2e-4 0.0422,-0.0114 z m 98.51217,5.693091 c 2.86854,-3.19603 5.12238,-6.354821 7.07377,-9.914031 0.28791,-0.52512 0.52961,-0.96297 0.53714,-0.97301 0.0186,-0.0248 0.47327,0.27829 0.47327,0.31547 0,0.0714 -0.91716,1.70842 -1.53259,2.73555 -1.39727,2.33199 -3.32099,5.013741 -4.95417,6.906321 -0.0618,0.0716 -0.52789,0.40077 -1.03579,0.73151 l -0.92346,0.60134 z m -30.97442,-1.21957 c -0.086,-0.13593 -0.147,-0.25508 -0.13554,-0.26476 0.0114,-0.01 0.3241,-0.0854 0.69477,-0.16819 6.53202,-1.45963 12.80941,-5.059941 17.34499,-9.947971 2.26718,-2.44335 3.93133,-4.81899 5.4529,-7.78423 l 0.62336,-1.2148 0.23701,0.16419 0.23702,0.1642 -0.49963,0.99809 c -2.3883,4.77102 -5.81516,8.87009 -10.12489,12.11097 -3.84005,2.88769 -8.52154,5.046351 -13.19138,6.082651 l -0.48224,0.10702 z m -3.52938,-4.493751 -0.2134,-0.26363 0.88735,-0.12741 c 4.87106,-0.69941 9.5205,-2.62707 13.43827,-5.57153 1.57049,-1.18033 3.3369,-2.83194 4.57283,-4.27561 1.84829,-2.15897 3.38988,-4.61462 4.55352,-7.25342 l 0.28854,-0.65434 0.23224,0.1929 0.23223,0.19291 -0.16481,0.38729 c -1.76913,4.1574 -4.67287,8.03114 -8.24653,11.0013 -4.03794,3.35604 -9.15798,5.6747 -14.27167,6.46309 -0.41701,0.0643 -0.83401,0.12931 -0.92668,0.14449 -0.14717,0.0241 -0.1955,-0.006 -0.38189,-0.23604 z m -56.04683,-0.589 c -1.87806,-3.31607 -3.45263,-6.79951 -4.61821,-10.21696 l -0.41932,-1.22941 h 0.2994 0.29939 l 0.26765,0.77223 c 0.97082,2.80101 2.01887,5.28176 3.29981,7.8107 0.53265,1.05158 0.84573,1.63306 1.54934,2.87753 l 0.17652,0.31221 -0.21563,0.21056 -0.21565,0.21056 z m -22.744355,-2.17796 -0.152491,-0.27547 0.67995,-0.7757 c 2.201769,-2.51184 4.390569,-5.52191 6.198442,-8.52419 l 0.657288,-1.09155 0.175615,0.0345 c 0.474862,0.0934 0.503408,-0.0267 -0.317621,1.33597 -1.872424,3.10765 -3.935567,5.95129 -6.184895,8.52464 -0.404423,0.46268 -0.773221,0.88759 -0.819554,0.94424 -0.07916,0.0968 -0.09345,0.0864 -0.236734,-0.17246 z m 73.964005,-1.62556 c -0.2085,-0.15913 -0.37909,-0.29481 -0.37909,-0.30149 0,-0.007 0.78978,-0.0136 1.75507,-0.0154 1.82646,-0.003 2.64247,-0.0657 4.11366,-0.31434 5.92336,-1.00098 11.19971,-4.05162 15.00068,-8.67298 1.66625,-2.02589 3.11883,-4.56515 3.9812,-6.95959 0.14462,-0.40156 0.28112,-0.74903 0.30333,-0.77215 0.0222,-0.0231 0.13588,0.0558 0.25261,0.17532 l 0.21225,0.21737 -0.29153,0.77943 c -1.71843,4.59443 -4.9704,8.76385 -9.05412,11.60848 -2.51886,1.75458 -5.45017,3.0749 -8.45146,3.8067 -1.89056,0.46097 -3.46286,0.66001 -5.5752,0.70575 l -1.4883,0.0323 z m -45.8705,-0.63725 c -0.90727,-1.67838 -1.92978,-3.88948 -2.66833,-5.77003 -0.53502,-1.3623 -0.66809,-1.73711 -0.63021,-1.775 0.0172,-0.0172 0.1487,-0.0356 0.29222,-0.0408 l 0.26095,-0.01 0.24132,0.64587 c 0.72877,1.95052 1.48876,3.66644 2.53536,5.72435 0.41513,0.81626 0.75477,1.50159 0.75477,1.52297 0,0.0213 -0.1001,0.10512 -0.22244,0.18608 l -0.22246,0.14721 z m 5.5343,-3.20712 c -0.69659,-1.27792 -1.70781,-3.4905 -2.30856,-5.05121 -0.26231,-0.68146 -0.28697,-0.77937 -0.20368,-0.80861 0.0521,-0.0183 0.17276,-0.0644 0.26808,-0.1025 l 0.17333,-0.0692 0.37769,0.95563 c 0.54474,1.37828 1.09059,2.58949 1.81413,4.02541 0.34909,0.69281 0.63472,1.26726 0.63472,1.27655 0,0.0202 -0.43299,0.24383 -0.47221,0.24383 -0.0151,0 -0.14263,-0.21143 -0.2835,-0.46986 z m 40.43448,-0.0971 c -6.80319,-0.45678 -12.98623,-4.06931 -16.72663,-9.7728 -1.2064,-1.83954 -2.13621,-3.86994 -2.75611,-6.01844 -0.24285,-0.84171 -0.49537,-1.97137 -0.57191,-2.5585 -0.0387,-0.29648 -0.037,-0.30084 0.20457,-0.547 l 0.24353,-0.24814 0.1293,0.77165 c 1.18555,7.07584 5.84121,13.12612 12.32481,16.01674 7.87268,3.50994 16.9928,1.86448 23.01851,-4.15301 4.48601,-4.4799 6.60275,-10.72329 5.73047,-16.90226 -0.82601,-5.85123 -4.21056,-10.98594 -9.22642,-13.99742 -5.56917,-3.343686 -12.38878,-3.625583 -18.12416,-0.74918 -0.71696,0.35957 -1.64967,0.90754 -2.23197,1.3113 l -0.40409,0.28019 0.144,-0.40196 c 0.0792,-0.22107 0.16629,-0.44459 0.19355,-0.4967 0.0684,-0.13074 1.13452,-0.76486 2.06018,-1.225396 2.06391,-1.026795 4.17857,-1.640614 6.61016,-1.918719 0.80332,-0.09188 3.19002,-0.09044 4.01562,0.0025 3.91094,0.439848 7.44391,1.932354 10.50238,4.436735 0.70419,0.57661 1.8901,1.74924 2.47803,2.45028 4.70786,5.61362 6.02067,13.26648 3.46357,20.19041 -0.34139,0.92441 -1.08008,2.46658 -1.60768,3.35642 -2.14076,3.61051 -5.4667,6.58046 -9.3235,8.32553 -3.15697,1.42844 -6.72224,2.07775 -10.14621,1.84786 z m -78.089229,-0.2134 c -0.180371,-0.22774 -0.18133,-0.2321 -0.07957,-0.36383 0.05665,-0.0733 0.447101,-0.55985 0.867686,-1.08116 1.297137,-1.60775 2.697998,-3.57638 3.671824,-5.16 0.208942,-0.33978 0.389014,-0.62806 0.400139,-0.64062 0.02602,-0.0293 0.467579,0.16893 0.502662,0.2257 0.03418,0.0553 -0.988052,1.67293 -1.788387,2.8299 -0.753503,1.08929 -1.815886,2.49884 -2.619066,3.47493 -0.32719,0.39763 -0.634906,0.77304 -0.683817,0.83426 -0.08668,0.10853 -0.09348,0.10554 -0.271468,-0.11918 z m 43.053509,-2.21802 c -0.73891,-1.35735 -1.48291,-2.97525 -2.12067,-4.61162 l -0.32833,-0.84244 0.26214,-0.1176 0.26215,-0.1176 0.48747,1.21277 c 0.58686,1.46001 1.22731,2.84246 1.8796,4.05724 0.26589,0.49516 0.47312,0.91061 0.46052,0.92321 -0.0126,0.0126 -0.13759,0.0574 -0.27774,0.0996 l -0.25483,0.0767 z m 18.76015,-0.67685 c -0.63358,-0.14695 -0.59072,-0.1144 -1.52035,-1.15473 -1.10169,-1.2329 -1.68099,-1.98143 -2.52443,-3.26192 -1.14051,-1.73147 -2.07306,-3.60939 -2.80045,-5.63935 -0.23923,-0.66763 -0.66475,-2.09556 -0.6628,-2.22416 10e-4,-0.0756 0.43335,-0.42142 0.47476,-0.37986 0.011,0.011 0.0745,0.23489 0.14109,0.49745 0.0666,0.26255 0.25857,0.89031 0.42663,1.39501 1.2774,3.83634 3.29303,7.12267 6.14557,10.01994 0.47904,0.48654 0.87077,0.8825 0.87052,0.87992 0,-0.003 -0.24799,-0.0621 -0.55054,-0.1323 z m -13.23512,-0.74755 c -0.91907,-1.55413 -2.09766,-4.06074 -2.74669,-5.84162 l -0.16912,-0.46407 0.21875,-0.1116 c 0.12032,-0.0614 0.24049,-0.1116 0.26705,-0.1116 0.0266,0 0.16919,0.32223 0.31695,0.71607 0.67308,1.79407 1.65896,3.87276 2.60371,5.48988 l 0.55779,0.95477 -0.28687,0.0678 c -0.15778,0.0373 -0.29093,0.0689 -0.29588,0.0702 -0.005,0.001 -0.21452,-0.34512 -0.46569,-0.76986 z m 6.07423,0.0281 c -1.70862,-2.32342 -3.27363,-5.35983 -4.25512,-8.25573 l -0.18554,-0.54743 0.2515,-0.14739 c 0.13832,-0.0811 0.25955,-0.13799 0.26939,-0.12652 0.01,0.0115 0.10012,0.2736 0.20064,0.58249 0.86173,2.6483 2.39895,5.6415 4.15533,8.09108 l 0.50072,0.69835 h -0.36005 -0.36004 z m 23.74536,0.0693 c -3.66396,-0.24248 -7.1232,-1.59212 -10.05308,-3.92225 -0.75171,-0.59783 -2.23932,-2.10775 -2.83006,-2.8725 -2.497,-3.23253 -3.75907,-6.75962 -3.89192,-10.87674 l -0.0347,-1.07639 0.29426,-0.36979 c 0.16184,-0.20339 0.29859,-0.3698 0.30389,-0.3698 0.005,0 0.0104,0.57497 0.0113,1.2777 0.002,1.32251 0.0607,2.05329 0.25482,3.15914 0.96422,5.49276 4.48802,10.23647 9.43064,12.69543 1.86913,0.92989 3.69279,1.47168 5.75631,1.71015 0.94618,0.10934 2.81556,0.10948 3.76357,0 3.18752,-0.36719 6.10919,-1.57693 8.62779,-3.5724 0.69611,-0.55153 2.01208,-1.85706 2.54157,-2.5214 1.90635,-2.39191 3.09074,-5.16537 3.52564,-8.25589 0.10056,-0.71466 0.10065,-3.27194 0,-3.98754 -0.51012,-3.63167 -2.06214,-6.79097 -4.55299,-9.26807 -0.84417,-0.83951 -1.40731,-1.2992 -2.41068,-1.9678 -2.06449,-1.3757 -4.35133,-2.2086 -6.86129,-2.499 -0.98602,-0.11407 -2.89584,-0.0847 -3.81904,0.0587 -1.59359,0.24761 -3.05877,0.70728 -4.46492,1.40078 -1.07364,0.52951 -1.52305,0.80275 -2.41499,1.46834 -1.8429,1.3752 -3.33661,3.15474 -4.35163,5.1843 -0.76125,1.52215 -1.20174,2.9473 -1.46881,4.7522 -0.0989,0.66843 -0.0996,2.86311 -0.001,3.56631 0.68693,4.90538 3.57349,8.93098 7.89688,11.01298 6.04335,2.91028 13.2542,1.0267 17.00502,-4.44197 2.65107,-3.86523 3.02102,-8.78018 0.9744,-12.94545 -1.23495,-2.51337 -3.14505,-4.43796 -5.64905,-5.69192 -1.91626,-0.95962 -4.19255,-1.41584 -6.25362,-1.25334 -4.31608,0.34027 -7.98685,2.80566 -9.8392,6.60829 -0.84944,1.74378 -1.19092,3.35813 -1.13326,5.35744 0.0499,1.7315 0.3443,2.95098 1.08423,4.49173 0.60641,1.26272 1.31615,2.25427 2.28165,3.18756 2.75559,2.66368 6.61562,3.68585 10.25307,2.71512 2.92416,-0.78038 5.35813,-2.77793 6.67009,-5.47412 1.286,-2.64281 1.35931,-5.62233 0.20454,-8.31204 -1.35458,-3.1551 -4.26902,-5.34447 -7.66818,-5.76045 -0.74704,-0.0914 -2.20225,-0.0356 -2.89119,0.11088 -3.22252,0.68524 -5.80651,2.94201 -6.80184,5.9405 -0.39236,1.18197 -0.54036,2.2945 -0.45174,3.39549 0.059,0.73335 0.0842,0.88435 0.26594,1.59285 0.55018,2.14537 1.94135,3.99925 3.83992,5.11712 1.00003,0.58882 1.95311,0.92711 3.07351,1.09093 0.65344,0.0955 2.19977,0.0394 2.7895,-0.10128 2.45041,-0.58454 4.31948,-2.04822 5.39566,-4.22533 0.50559,-1.02282 0.75347,-2.10288 0.75347,-3.28297 0,-2.0241 -0.72573,-3.79496 -2.13125,-5.20048 -2.69824,-2.69824 -6.89069,-2.80735 -9.65163,-0.2512 -0.64382,0.59606 -1.30301,1.58156 -1.63799,2.44881 -0.52098,1.34882 -0.53283,3.11935 -0.0298,4.4557 0.71553,1.90097 2.26853,3.31384 4.21331,3.83313 0.48729,0.13012 0.67374,0.15014 1.43082,0.15368 0.74209,0.004 0.94452,-0.0154 1.37221,-0.12774 2.14244,-0.56293 3.68353,-2.10573 4.19737,-4.20202 0.17062,-0.69607 0.16861,-1.70479 -0.005,-2.40415 -0.25159,-1.01472 -0.89382,-2.08346 -1.63571,-2.72198 -0.95457,-0.82158 -2.05742,-1.24094 -3.26724,-1.24237 -0.66179,-6.3e-4 -1.10206,0.0741 -1.6836,0.28633 -2.83762,1.0356 -3.96926,4.43598 -2.26918,6.81844 0.74895,1.04956 1.90702,1.69536 3.15569,1.75978 0.73748,0.038 1.28176,-0.0774 1.98331,-0.42072 0.4214,-0.20622 0.6145,-0.34458 0.95476,-0.68411 0.73476,-0.73321 1.06711,-1.45956 1.11493,-2.4367 0.035,-0.71561 -0.0476,-1.1252 -0.35565,-1.76452 -0.45539,-0.94492 -1.32593,-1.62545 -2.35461,-1.84068 -0.49462,-0.1035 -0.74157,-0.10344 -1.23558,5.5e-4 -1.61563,0.3392 -2.71012,1.84989 -2.44648,3.37679 0.32337,1.87288 2.38728,2.88239 3.91433,1.91461 0.32778,-0.20772 0.74032,-0.67937 0.90895,-1.03913 0.1318,-0.28122 0.15051,-0.39096 0.15051,-0.88277 0,-0.49181 -0.0187,-0.60155 -0.15051,-0.88277 -0.19893,-0.42441 -0.58509,-0.82837 -0.98522,-1.03062 -0.28676,-0.14494 -0.38325,-0.16405 -0.82995,-0.16431 -0.42314,0 -0.55096,0.0221 -0.78481,0.13715 -0.62838,0.30922 -1.00435,0.88865 -1.00405,1.54741 0,0.46249 0.0924,0.70801 0.38955,1.03687 0.25866,0.2863 0.56045,0.44718 0.91842,0.48957 0.89881,0.10645 1.66495,-0.82981 1.33169,-1.6274 -0.10107,-0.2419 -0.43372,-0.52657 -0.69871,-0.59792 -0.33861,-0.0912 -0.77934,0.0769 -0.91207,0.34786 l -0.0619,0.12637 0.10206,-0.12416 c 0.15601,-0.18982 0.49907,-0.31102 0.75699,-0.26744 0.72649,0.12273 0.96813,1.08306 0.40502,1.60956 -0.21181,0.19804 -0.41515,0.27034 -0.76028,0.27034 -0.97885,0 -1.50008,-1.17034 -0.89375,-2.00676 0.0844,-0.11641 0.29048,-0.28651 0.45799,-0.378 0.61125,-0.33385 1.40099,-0.17811 1.86893,0.36857 0.27808,0.32488 0.39025,0.69268 0.36353,1.19205 -0.0489,0.91423 -0.73066,1.58597 -1.67847,1.65379 -1.14558,0.082 -2.072,-0.74545 -2.17291,-1.9407 -0.0853,-1.00968 0.60562,-2.0078 1.60296,-2.31585 1.35584,-0.41878 2.74902,0.30888 3.20972,1.67643 0.14469,0.42955 0.15641,1.19906 0.025,1.642 -0.37424,1.26136 -1.49652,2.09297 -2.82994,2.09701 -0.91573,0.003 -1.63052,-0.29283 -2.28081,-0.94323 -1.0362,-1.03641 -1.26531,-2.57574 -0.58607,-3.93767 0.50579,-1.01413 1.41814,-1.69197 2.57697,-1.9146 2.23515,-0.42939 4.37886,1.2109 4.61259,3.52938 0.21123,2.09525 -1.05209,3.94263 -3.14569,4.60007 -0.36243,0.11381 -0.53219,0.13133 -1.26123,0.13021 -0.98619,-10e-4 -1.30829,-0.0713 -2.08077,-0.45059 -1.3898,-0.68243 -2.35772,-2.01291 -2.61225,-3.59073 -0.10045,-0.62265 -0.0397,-1.56487 0.14053,-2.17999 0.32074,-1.09463 0.94758,-2.00848 1.83787,-2.67933 1.66206,-1.25241 3.84438,-1.44434 5.74739,-0.50548 2.79435,1.37861 3.95332,4.84133 2.58703,7.72943 -0.90736,1.91798 -2.65379,3.19205 -4.80709,3.5069 -0.62522,0.0914 -1.79302,0.0361 -2.40368,-0.11383 -2.54651,-0.62527 -4.47764,-2.69023 -4.98936,-5.33514 -0.10878,-0.56225 -0.12254,-1.80688 -0.0262,-2.36957 0.17614,-1.02876 0.72039,-2.31992 1.31038,-3.10869 0.88169,-1.17873 2.23071,-2.13851 3.61834,-2.57432 0.80166,-0.25176 1.38436,-0.33742 2.29559,-0.33742 0.91269,0 1.49755,0.0862 2.29504,0.33809 2.62068,0.82787 4.66626,3.10689 5.2275,5.82406 0.69065,3.34368 -0.73283,6.7113 -3.63386,8.59682 -1.53626,0.99848 -3.43547,1.47191 -5.29633,1.32024 -5.83393,-0.4755 -9.58405,-6.2864 -7.72016,-11.96259 0.92959,-2.8309 3.26687,-5.13915 6.12988,-6.05373 1.15905,-0.37025 1.57098,-0.42779 3.05409,-0.42658 1.1855,10e-4 1.41895,0.0164 1.93761,0.12803 1.61571,0.34775 3.14285,1.06544 4.37438,2.05577 0.4607,0.37047 1.35762,1.29097 1.70933,1.75426 2.4168,3.18356 2.78515,7.51471 0.9498,11.16817 -1.95102,3.88373 -6.25818,6.28147 -10.64738,5.92726 -5.04743,-0.40732 -9.22639,-3.99985 -10.36005,-8.90624 -0.29019,-1.25591 -0.38607,-2.94243 -0.23627,-4.15602 0.33934,-2.74919 1.535,-5.20983 3.47841,-7.15844 1.8917,-1.89677 4.27792,-3.09248 7.02706,-3.52118 0.88886,-0.13862 2.75069,-0.13917 3.64855,-10e-4 1.39579,0.21466 2.51447,0.56401 3.79097,1.18386 2.57528,1.25052 4.64235,3.29444 5.91249,5.84628 0.63154,1.26883 1.00235,2.3991 1.25599,3.82842 0.17275,0.97347 0.18891,3.17363 0.0306,4.17273 -0.36272,2.28998 -1.26097,4.41189 -2.63982,6.236 -0.52774,0.69817 -1.60807,1.80795 -2.3128,2.37587 -4.71364,3.79855 -11.37584,4.1403 -16.57283,0.85015 -0.78945,-0.4998 -1.672,-1.21832 -2.44114,-1.98745 -2.27755,-2.27753 -3.68881,-5.08356 -4.18191,-8.315 -0.12616,-0.82679 -0.17102,-2.62561 -0.0876,-3.51291 0.23836,-2.53523 1.06654,-4.90749 2.43829,-6.98432 0.60668,-0.91851 1.03918,-1.45474 1.83292,-2.27251 2.39158,-2.46398 5.41652,-4.00793 8.93109,-4.55848 0.77939,-0.1221 2.91853,-0.17208 3.7769,-0.0883 5.51491,0.5385 10.32842,3.82222 12.83679,8.7571 0.70414,1.3853 1.11914,2.53087 1.43813,3.96981 0.29715,1.34038 0.34002,1.79503 0.33892,3.5944 -0.001,1.92418 -0.0796,2.61399 -0.47178,4.15003 -0.58955,2.30912 -1.72464,4.58052 -3.23113,6.46573 -0.97485,1.21992 -2.51518,2.61681 -3.89522,3.53246 -3.09537,2.05378 -7.00198,3.08716 -10.73644,2.84001 z m 1.82759,-17.52551 c 0.0605,-0.0978 -0.008,-0.11853 -0.0854,-0.0257 -0.0443,0.0534 -0.0486,0.0856 -0.0113,0.0856 0.0329,0 0.0764,-0.027 0.0967,-0.0599 z m -0.83447,-0.17529 c -0.0179,-0.0448 -0.0312,-0.0315 -0.0339,0.0339 -0.002,0.0592 0.0108,0.0924 0.0295,0.0737 0.0187,-0.0187 0.0207,-0.0671 0.004,-0.10764 z m -83.853938,16.63314 c -0.111911,-0.0983 -0.20337,-0.19498 -0.203245,-0.21495 0,-0.02 0.192941,-0.2764 0.428486,-0.56984 1.086527,-1.35361 2.217725,-2.92491 3.052638,-4.24027 0.254889,-0.40157 0.470449,-0.73804 0.479034,-0.74774 0.02142,-0.0242 0.471675,0.29035 0.474321,0.33133 0.0044,0.0629 -1.553576,2.39068 -2.102651,3.14227 -0.441642,0.60453 -1.689725,2.21576 -1.883394,2.43138 -0.02297,0.0255 -0.133285,-0.0339 -0.245189,-0.13218 z m -4.68242,-3.73802 c -0.100393,-0.0791 -0.182525,-0.1688 -0.182525,-0.19929 0,-0.0305 0.173864,-0.26243 0.386373,-0.51543 0.905024,-1.07748 2.606341,-3.48577 3.291403,-4.65912 l 0.22191,-0.38007 0.218623,0.21863 0.218629,0.21862 -0.434581,0.69499 c -0.583468,0.93311 -1.271151,1.9394 -1.952595,2.85725 -0.643753,0.86707 -1.48813,1.90982 -1.545751,1.9089 -0.02142,-5.6e-4 -0.121094,-0.0654 -0.221486,-0.14448 z m -4.498464,-3.23772 c -0.207005,-0.14341 -0.229026,-0.17756 -0.165764,-0.25712 0.04009,-0.0505 0.271088,-0.32912 0.513257,-0.61924 1.130121,-1.35387 2.472353,-3.29886 3.408201,-4.93873 0.286043,-0.50123 0.535434,-0.90919 0.554205,-0.90658 0.01874,0.002 0.115802,0.1 0.215641,0.21632 l 0.181523,0.21157 -0.397668,0.69632 c -1.083346,1.89698 -2.423597,3.82473 -3.718213,5.34809 l -0.352468,0.4147 z m -4.487113,-2.66242 -0.238272,-0.14354 0.258239,-0.28939 c 1.919709,-2.15136 3.45218,-4.40362 4.683136,-6.88277 0.239286,-0.48193 0.50588,-1.04052 0.592414,-1.2413 0.08654,-0.20078 0.172993,-0.38384 0.192113,-0.40679 0.01911,-0.023 0.113635,0.0956 0.210031,0.2634 l 0.175265,0.30514 -0.380297,0.81035 c -1.20924,2.57671 -2.924628,5.16922 -4.858825,7.34328 -0.176996,0.19895 -0.338397,0.367 -0.358675,0.37344 -0.0203,0.006 -0.14408,-0.0529 -0.275129,-0.13182 z m -46.769164,-0.88043 -0.504916,-0.17888 -0.540415,-0.66028 c -1.108996,-1.35494 -2.235569,-3.03153 -3.172923,-4.72201 -0.552039,-0.99558 -0.520019,-0.91352 -1.033507,-2.64894 -0.797975,-2.69692 -1.336859,-4.24544 -2.022855,-5.81282 -0.345538,-0.78949 -0.394318,-0.94893 -0.524066,-1.71296 -0.3133,-1.8448 -0.424744,-3.04503 -0.466738,-5.02653 -0.04682,-2.207981 0.0787,-3.983922 0.430765,-6.095676 0.494624,-2.966877 1.437432,-6.003789 2.671376,-8.604856 l 0.353028,-0.744152 h 0.312796 c 0.172041,0 0.312802,0.01326 0.312802,0.02951 0,0.01619 -0.08803,0.204291 -0.195624,0.417945 -1.41373,2.807301 -2.517491,6.381465 -3.001057,9.717974 -0.247673,1.708882 -0.307355,2.599225 -0.308718,4.605325 -0.0019,2.58473 0.165908,4.24407 0.677323,6.70339 1.079361,5.19053 3.581281,10.26098 7.035964,14.25925 0.313605,0.36295 0.550277,0.65826 0.52594,0.65626 -0.02434,-0.002 -0.271475,-0.0841 -0.549175,-0.18253 z m 4.910002,-1.40042 c -1.709697,-1.67737 -3.143998,-3.48928 -4.344615,-5.48845 -5.261181,-8.76046 -5.357502,-19.632591 -0.253015,-28.560042 0.607973,-1.063317 0.5718,-1.024717 1.004968,-1.072426 l 0.363127,-0.03997 -0.109433,0.163069 c -0.704083,1.049172 -1.899825,3.353655 -2.441454,4.705257 -1.472858,3.675429 -2.18319,7.856993 -1.975519,11.629482 0.219457,3.98663 1.129517,7.47305 2.852189,10.92672 1.420417,2.84769 3.047839,5.08246 5.346396,7.3416 l 0.869741,0.85484 -0.265878,0.11397 c -0.146234,0.0627 -0.28374,0.11397 -0.305568,0.11397 -0.02185,0 -0.35525,-0.3096 -0.740939,-0.688 z m 37.363899,0.13476 -0.240532,-0.0977 0.149802,-0.13789 c 0.375678,-0.3458 1.665861,-1.7786 2.186415,-2.4281 2.281068,-2.84611 3.953634,-6.19253 4.860189,-9.72408 l 0.186273,-0.72564 0.166692,0.50007 0.166687,0.50008 -0.10068,0.39405 c -0.05541,0.21672 -0.220335,0.76051 -0.366587,1.2084 -1.007322,3.08508 -2.679053,6.09581 -4.796685,8.63869 -0.699219,0.83962 -1.781202,1.97616 -1.878176,1.97288 -0.05105,-0.002 -0.201104,-0.0471 -0.333398,-0.1008 z M 29.05001,71.810199 c -4.308784,-3.47181 -7.204655,-8.23897 -8.290491,-13.64775 -0.344617,-1.71662 -0.419241,-2.53701 -0.421569,-4.63482 -0.0025,-2.048411 0.05062,-2.717366 0.339798,-4.296425 0.726906,-3.969535 2.47023,-7.762055 4.985815,-10.846408 l 0.532521,-0.652924 0.327072,-0.03922 c 0.179891,-0.0216 0.390252,-0.05323 0.467472,-0.07028 0.128783,-0.02851 0.121374,-0.01071 -0.08948,0.21477 -0.913391,0.976695 -2.158193,2.702287 -2.968757,4.115407 -1.547437,2.697762 -2.539181,5.740526 -2.930691,8.991622 -0.142648,1.184578 -0.143445,3.929968 -0.0012,5.082708 0.571346,4.63885 2.294354,8.67797 5.190206,12.16701 1.04162,1.25498 2.587364,2.71738 3.847015,3.63958 0.208499,0.15265 0.379089,0.29257 0.379089,0.31095 0,0.0184 -0.153699,0.0746 -0.341566,0.12492 l -0.341565,0.0915 -0.683394,-0.55065 z m 27.861174,0.17516 c -0.177613,-0.0477 -0.321195,-0.10065 -0.319072,-0.11773 0.0019,-0.0171 0.232737,-0.20794 0.512473,-0.42417 0.716005,-0.55344 2.313835,-2.11882 2.995361,-2.93451 2.124081,-2.54222 3.600051,-5.43736 4.402192,-8.63496 0.376331,-1.5002 0.5605,-2.87498 0.605637,-4.52108 0.219501,-8.004458 -4.110539,-15.376079 -11.189754,-19.049852 -2.260609,-1.173155 -4.758401,-1.90445 -7.43901,-2.177986 -0.858006,-0.08755 -2.940629,-0.07364 -3.889196,0.02596 -8.709906,0.914674 -15.781257,7.366435 -17.390151,15.866441 -0.432632,2.285637 -0.423131,4.893117 0.02621,7.188467 0.802558,4.0998 3.009425,7.92025 6.138866,10.62736 1.216151,1.05203 2.380639,1.82909 3.861117,2.57652 l 0.962164,0.48576 -0.498695,0.0818 -0.498702,0.0818 -0.66004,-0.34523 c -4.314985,-2.25691 -7.710908,-6.30197 -9.241853,-11.00848 -0.435409,-1.33856 -0.675822,-2.42039 -0.861187,-3.87521 -0.123453,-0.96894 -0.140114,-3.38823 -0.02976,-4.324512 0.293501,-2.49047 0.930817,-4.676549 1.976589,-6.77993 1.013547,-2.038581 2.099022,-3.544616 3.761098,-5.218321 1.734065,-1.7462 3.359669,-2.918819 5.47613,-3.950185 5.681598,-2.768675 12.338453,-2.776688 18.055557,-0.02173 4.716122,2.2726 8.342123,6.106584 10.382827,10.978347 0.738941,1.764068 1.239517,3.666787 1.50535,5.721941 0.144678,1.11852 0.144834,3.99021 0,5.11078 -0.716191,5.5515 -3.253411,10.33611 -7.42286,13.99778 -0.401559,0.35265 -0.768016,0.66063 -0.814355,0.68439 -0.04632,0.0238 -0.229562,0.004 -0.407175,-0.0435 z m -5.546042,-1.17084 c -0.389399,-0.0421 -0.36302,-0.0788 0.310337,-0.43154 1.819703,-0.95328 3.234435,-2.00283 4.635801,-3.43915 2.825287,-2.89577 4.531946,-6.55096 4.936151,-10.5719 0.07482,-0.74437 0.0753,-2.52193 6.22e-4,-3.2736 -0.3277,-3.309552 -1.624639,-6.509676 -3.684089,-9.090235 -0.518905,-0.650203 -1.952122,-2.078975 -2.61218,-2.60408 -1.308201,-1.040736 -3.141115,-2.075103 -4.682066,-2.642221 -1.206332,-0.443963 -2.64514,-0.777796 -4.043697,-0.938213 -0.826664,-0.09482 -2.672628,-0.07902 -3.538235,0.03026 -1.893717,0.239118 -3.462179,0.696436 -5.123949,1.493982 -4.951585,2.376442 -8.277541,6.96307 -8.979151,12.382589 -0.126804,0.979478 -0.126953,2.783298 -2.12e-4,3.757538 0.237406,1.82629 0.679104,3.28808 1.494997,4.94764 2.239902,4.55608 6.446263,7.58805 11.541318,8.31906 0.922668,0.13238 2.779378,0.13313 3.734806,0.001 4.264493,-0.58747 7.900612,-2.85213 10.248446,-6.38297 0.484401,-0.72847 1.154452,-2.05249 1.463755,-2.89236 1.055292,-2.86552 1.131491,-6.07117 0.21325,-8.970998 -1.224674,-3.867567 -4.122804,-7.006827 -7.853382,-8.506817 -4.860998,-1.954506 -10.376109,-0.847589 -14.042006,2.818308 -1.961959,1.961959 -3.201082,4.438364 -3.599024,7.192697 -0.127967,0.88574 -0.127015,2.51601 0.0019,3.36695 0.954581,6.29736 6.354998,10.75538 12.541729,10.35312 4.611214,-0.2998 8.650143,-3.4144 10.038222,-7.74091 0.427882,-1.33367 0.564118,-2.33096 0.51766,-3.78948 -0.05109,-1.60249 -0.374054,-2.903764 -1.073921,-4.326608 -0.603857,-1.227657 -1.197641,-2.036359 -2.212327,-3.01308 -2.774721,-2.670915 -6.651688,-3.570615 -10.316191,-2.393999 -0.718364,0.230657 -2.013023,0.879995 -2.611975,1.310037 -2.454098,1.76202 -3.942545,4.37798 -4.15272,7.29845 -0.340688,4.73395 2.911647,8.97042 7.550972,9.83584 0.844849,0.1576 2.370708,0.14634 3.214051,-0.0237 1.182176,-0.23838 2.244092,-0.68078 3.275365,-1.36451 0.708396,-0.46966 1.812991,-1.57731 2.291633,-2.29796 1.644786,-2.47642 1.897962,-5.4835 0.683269,-8.115483 C 50.7607,49.435937 49.447406,48.092435 47.798555,47.290482 46.72103,46.76641 45.8954,46.554828 44.709619,46.498901 c -2.061891,-0.09726 -4.01979,0.642763 -5.526292,2.088743 -1.457853,1.39923 -2.252261,3.230655 -2.252261,5.192255 0,3.62338 2.687028,6.60133 6.230686,6.90528 2.625896,0.22523 5.166155,-1.23131 6.296382,-3.61024 1.066399,-2.24459 0.665145,-4.86157 -1.016934,-6.632366 -1.246963,-1.312727 -3.025594,-1.98492 -4.69722,-1.775206 -1.348849,0.169226 -2.434735,0.718115 -3.362396,1.699611 -1.489991,1.576461 -1.819834,3.866711 -0.832273,5.778801 1.106898,2.14317 3.626312,3.13189 5.823467,2.28537 1.008536,-0.38857 1.876826,-1.1851 2.341161,-2.14767 0.361233,-0.74885 0.471949,-1.26886 0.435633,-2.04623 -0.05062,-1.08456 -0.41205,-1.89446 -1.196988,-2.682485 -0.372695,-0.374165 -0.549237,-0.502406 -0.983569,-0.714492 -1.13235,-0.552942 -2.222756,-0.562636 -3.309376,-0.02945 -0.89345,0.438423 -1.662163,1.379567 -1.879341,2.300897 -0.271263,1.15078 0.04022,2.26463 0.863583,3.08798 0.505868,0.50587 0.947727,0.74401 1.629782,0.87839 0.785236,0.1547 1.580902,-0.0298 2.248911,-0.52161 1.612903,-1.18735 1.447237,-3.60191 -0.306365,-4.4651 -0.371251,-0.18276 -0.423163,-0.19294 -0.982841,-0.19294 -0.523543,0 -0.627484,0.0172 -0.912027,0.15052 -0.428928,0.20103 -0.859574,0.6147 -1.070172,1.02797 -0.138022,0.27086 -0.176947,0.42702 -0.196191,0.78719 -0.03045,0.56957 0.106532,0.96625 0.475274,1.37637 0.348103,0.38718 0.723357,0.57169 1.230333,0.60494 0.348576,0.0229 0.442905,0.006 0.747427,-0.13022 0.788312,-0.35378 1.166119,-1.22125 0.842882,-1.93533 -0.335788,-0.7418 -1.1372,-1.03446 -1.766129,-0.64494 -0.796904,0.49355 -0.655165,1.61393 0.226206,1.78807 0.160523,0.0317 0.161843,0.0305 0.02808,-0.0261 -0.522584,-0.22092 -0.645869,-0.37866 -0.645869,-0.82633 0,-0.3826 0.147666,-0.62799 0.479874,-0.79747 0.531867,-0.27133 1.141427,-0.0397 1.407417,0.53482 0.494586,1.06824 -0.76646,2.10571 -1.84559,1.51838 -0.507474,-0.2762 -0.737379,-0.68647 -0.740716,-1.32181 -0.0031,-0.63103 0.315473,-1.13415 0.916467,-1.44643 0.246303,-0.12797 0.357155,-0.14956 0.765395,-0.14908 0.57457,6.3e-4 0.900154,0.13325 1.293526,0.52663 0.415885,0.41588 0.530335,0.7128 0.531101,1.37777 6.23e-4,0.49302 -0.01781,0.60098 -0.150324,0.88377 -0.192605,0.41096 -0.600172,0.81852 -1.029156,1.02915 -0.312889,0.15362 -0.381144,0.16509 -0.982125,0.16509 -0.594842,0 -0.671371,-0.0125 -0.968671,-0.15846 -0.495856,-0.24341 -0.904313,-0.65054 -1.14863,-1.14488 -0.186827,-0.37801 -0.21127,-0.47855 -0.232096,-0.95481 -0.0287,-0.65607 0.08286,-1.11743 0.3812,-1.57656 0.536611,-0.825799 1.333198,-1.245899 2.36518,-1.247324 0.981066,-0.0012 1.830548,0.429625 2.388807,1.211954 0.365965,0.51284 0.533853,0.99482 0.569957,1.63624 0.03779,0.67177 -0.04862,1.10714 -0.336317,1.69414 -0.588909,1.2016 -1.879447,1.92685 -3.272164,1.8389 -0.971143,-0.0613 -1.662904,-0.37587 -2.3602,-1.07316 -2.171884,-2.17188 -1.030668,-5.878355 2.051307,-6.662309 0.392233,-0.09978 1.673973,-0.100169 2.021852,-6.23e-4 1.64247,0.469988 2.763395,1.5522 3.266181,3.153372 0.116219,0.37011 0.131461,0.52785 0.130053,1.34593 -0.0013,0.90246 -0.0065,0.94097 -0.189498,1.47389 -0.769348,2.24049 -2.955539,3.61609 -5.326721,3.35169 -2.232157,-0.2489 -4.016465,-1.8117 -4.604179,-4.0326 -0.122812,-0.46411 -0.142965,-0.659 -0.142965,-1.38269 0,-0.7277 0.01999,-0.91893 0.1468,-1.40406 0.172813,-0.661156 0.591835,-1.533126 0.987604,-2.055175 2.152061,-2.838704 6.390063,-3.138606 9.039088,-0.639643 2.795901,2.637518 2.66172,7.213938 -0.286902,9.784898 -0.968372,0.84434 -2.255398,1.45071 -3.496845,1.64751 -0.644182,0.10212 -1.807014,0.0887 -2.412945,-0.0279 -1.544032,-0.29707 -2.805875,-0.96437 -3.875193,-2.04934 -0.552892,-0.56099 -0.781956,-0.85372 -1.136403,-1.45225 -0.36101,-0.60961 -0.615313,-1.22739 -0.814555,-1.97874 -0.149453,-0.56362 -0.17483,-0.76866 -0.199273,-1.61011 -0.03287,-1.1329 0.05354,-1.79534 0.351727,-2.694817 0.89739,-2.707138 3.135312,-4.688366 5.998055,-5.310079 0.829496,-0.180147 2.505244,-0.180147 3.334747,0 0.786382,0.170783 1.445581,0.411004 2.207832,0.804581 0.836121,0.431717 1.46886,0.908827 2.168204,1.634905 1.742515,1.809144 2.610033,4.25893 2.389654,6.74815 -0.184747,2.08676 -1.019231,3.95776 -2.430103,5.44854 -1.786743,1.88794 -4.140087,2.89309 -6.782034,2.89671 -4.567303,0.006 -8.444489,-3.15158 -9.466983,-7.71055 -0.794451,-3.54221 0.430653,-7.309203 3.187162,-9.799954 1.490334,-1.346645 3.432563,-2.263504 5.514426,-2.603153 0.685822,-0.111892 2.677023,-0.09688 3.341664,0.02521 1.212061,0.22262 1.982411,0.470088 3.004693,0.965234 2.304932,1.1164 4.03944,2.865414 5.163945,5.207115 0.488908,1.018111 0.745509,1.80765 0.963939,2.965958 0.139485,0.73966 0.168934,2.67075 0.05336,3.49939 -0.282451,2.02528 -1.12072,4.02011 -2.352566,5.59843 -0.419907,0.538 -1.401546,1.52783 -1.947241,1.96348 -3.596466,2.87119 -8.626671,3.4286 -12.816199,1.4202 -3.814298,-1.82852 -6.399688,-5.36944 -7.042849,-9.6458 -0.12224,-0.81276 -0.139162,-2.65926 -0.03138,-3.42591 0.631302,-4.491206 3.264388,-8.176733 7.259916,-10.161691 1.324743,-0.658122 2.649312,-1.074629 4.149993,-1.304938 0.899354,-0.138019 2.91848,-0.138125 3.819045,-2.09e-4 2.553837,0.391149 4.936624,1.435048 6.885801,3.016666 1.483921,1.204109 2.83127,2.910768 3.700432,4.687276 0.652208,1.333067 1.056855,2.579264 1.285645,3.959456 0.602718,3.6358 -0.17902,7.33862 -2.199446,10.41814 -0.579222,0.88284 -1.020875,1.43217 -1.778326,2.21186 -5.702822,5.87038 -15.115994,6.08066 -21.272847,0.47522 -2.591865,-2.35973 -4.327786,-5.57248 -4.926488,-9.11769 -1.058978,-6.270524 1.757767,-12.701447 7.119502,-16.2544 3.388502,-2.245393 7.333867,-3.179971 11.388367,-2.697675 6.79847,0.808696 12.524309,5.655848 14.511396,12.284475 1.218317,4.06409 0.952502,8.44342 -0.750621,12.36689 -1.544567,3.55819 -4.217699,6.53039 -7.67176,8.53005 -0.676202,0.39148 -0.718831,0.40202 -1.34936,0.33383 z m -7.301125,-16.72195 c 0,-0.0593 -0.107776,-0.0842 -0.139834,-0.0323 -0.01942,0.0314 0.0044,0.0571 0.0523,0.0571 0.04819,0 0.08756,-0.0111 0.08756,-0.0248 z m 142.903703,7.92964 c -0.85434,-2.59827 -2.23706,-5.14185 -3.99187,-7.34325 -0.77388,-0.97083 -2.58429,-2.7819 -3.56029,-3.56161 -0.82124,-0.656067 -2.1689,-1.573991 -3.05523,-2.080992 -3.16106,-1.808178 -6.75529,-2.847557 -10.3676,-2.998099 -2.82822,-0.117863 -5.38097,0.22973 -8.04759,1.095791 -0.51866,0.168455 -1.21367,0.420747 -1.54447,0.560656 -0.33078,0.139908 -0.62994,0.266375 -0.66478,0.281031 -0.0433,0.01818 -0.0361,-0.08756 0.0229,-0.333702 l 0.0862,-0.360356 0.65108,-0.254385 c 5.11876,-1.999949 10.84642,-2.114755 16.09576,-0.322632 5.17589,1.76705 9.57502,5.269598 12.50992,9.960278 0.60815,0.97197 1.51164,2.76931 1.93781,3.85492 0.51623,1.31502 0.50661,1.26308 0.32131,1.73536 -0.0861,0.21935 -0.16297,0.39882 -0.17093,0.39882 -0.008,0 -0.10795,-0.28433 -0.22221,-0.63183 z m 2.37338,-5.74131 c -1.37739,-2.56664 -3.13196,-4.893345 -5.18568,-6.87664 -6.35737,-6.139395 -15.08904,-8.857398 -23.72278,-7.384441 -0.87042,0.148501 -2.54911,0.545166 -3.28327,0.775824 -0.24589,0.07725 -0.45804,0.129492 -0.47145,0.116082 -0.0134,-0.01339 -0.002,-0.155044 0.0258,-0.314745 l 0.0503,-0.290376 0.64587,-0.186466 c 2.80075,-0.808609 6.09697,-1.189031 8.95791,-1.033838 3.90226,0.211675 7.41099,1.101762 10.84125,2.750178 5.33294,2.562765 9.8121,6.8586 12.63511,12.117982 l 0.21738,0.40498 -0.13428,0.2867 c -0.0739,0.15768 -0.14983,0.2963 -0.16883,0.30805 -0.019,0.0118 -0.20229,-0.29125 -0.40732,-0.67329 z m 2.57359,-5.154211 c -0.53387,-0.795092 -1.36598,-1.897994 -2.08688,-2.766004 -0.80867,-0.973695 -2.94219,-3.10046 -3.95357,-3.941063 -5.24942,-4.363006 -11.27808,-6.858881 -18.1124,-7.498543 -1.02184,-0.09564 -4.36583,-0.09597 -5.30735,-4.23e-4 -1.16312,0.117918 -2.4014,0.289075 -3.14476,0.434674 -0.3863,0.07566 -0.71421,0.137667 -0.72869,0.137786 -0.09,6.22e-4 0.6716,-0.683064 0.8104,-0.727579 0.2215,-0.07104 1.51629,-0.255916 2.58567,-0.369184 1.06014,-0.112284 4.28311,-0.173958 4.82998,-0.09242 0.21622,0.03225 1.21059,0.249739 2.20971,0.483336 3.00061,0.701554 4.0993,0.911977 5.74223,1.099763 0.87172,0.09964 1.01413,0.132519 1.72229,0.397637 5.65771,2.118117 10.52491,5.630128 14.31442,10.328829 0.45349,0.56228 1.2317,1.616638 1.56576,2.121336 l 0.27032,0.408376 -0.13097,0.279618 c -0.072,0.15378 -0.14641,0.279606 -0.16529,0.279606 -0.0189,0 -0.20827,-0.259048 -0.42087,-0.575667 z M 6.2906023,49.032476 l -0.228814,-0.50334 0.101146,-0.702034 c 0.394847,-2.740596 1.103636,-5.495686 2.098667,-8.157599 l 0.267664,-0.716073 0.202573,-6.22e-4 c 0.111406,-4.24e-4 0.259402,-0.016 0.328871,-0.03462 l 0.126305,-0.03387 -0.14794,0.385633 c -1.327314,3.459869 -2.028831,6.266659 -2.475117,9.903045 l -0.04458,0.362933 -0.228809,-0.50334 z M 194.66466,45.93018 c -1.76207,-2.278148 -4.37905,-4.835783 -6.92962,-6.772496 l -0.63844,-0.484774 0.52612,0.03486 0.5261,0.03486 0.39314,0.297368 c 2.1068,1.593565 4.83309,4.283015 6.4943,6.406543 l 0.26028,0.332706 -0.14817,0.292394 -0.14817,0.292387 z M 66.427121,43.122935 C 63.577391,37.793469 59.160163,33.833926 53.609278,31.633204 49.417914,29.97149 44.647864,29.50662 40.337119,30.339765 c -0.397213,0.07676 -0.729073,0.131809 -0.737459,0.122314 -0.0084,-0.0095 0.05167,-0.156021 0.133471,-0.325609 l 0.148718,-0.308357 0.39217,-0.07137 c 3.448656,-0.627669 7.146617,-0.492268 10.609145,0.388437 6.639927,1.688884 12.32437,6.058359 15.72942,12.090762 l 0.426755,0.756044 -0.06491,0.493994 c -0.03568,0.271699 -0.06839,0.497644 -0.07264,0.502101 -0.0044,0.0044 -0.217851,-0.384854 -0.474669,-0.865146 z m -64.2328437,-2.496092 -0.158574,-0.353358 0.09554,-0.364259 c 0.05255,-0.20035 0.118472,-0.387196 0.146501,-0.415225 0.02802,-0.02802 0.182899,-0.06363 0.344163,-0.07913 0.257485,-0.02472 0.288801,-0.01669 0.257099,0.06592 -0.01986,0.05174 -0.128292,0.390228 -0.240956,0.752171 -0.112657,0.361943 -0.222918,0.678138 -0.245014,0.702656 -0.0221,0.02453 -0.111537,-0.114426 -0.198756,-0.308774 z M 197.35946,40.261525 c -0.21623,-0.24065 -0.49422,-0.548683 -0.61778,-0.68452 l -0.22465,-0.246976 0.42122,0.04047 c 0.45363,0.04364 0.5494,0.101513 0.90478,0.546984 l 0.16426,0.205878 -0.12734,0.287842 -0.12735,0.287843 z M 67.757921,36.747671 c -2.616208,-3.407484 -6.154175,-6.320102 -10.03844,-8.264099 -2.722155,-1.362385 -5.729743,-2.31447 -8.713162,-2.758259 -2.396552,-0.356489 -5.224304,-0.400556 -7.568142,-0.117937 -0.514864,0.06207 -0.573232,0.0602 -0.550582,-0.01768 0.01395,-0.04794 0.04178,-0.179885 0.06182,-0.293228 0.04078,-0.230502 -0.02036,-0.210953 1.036595,-0.331455 0.832454,-0.09491 3.708196,-0.129269 4.745732,-0.05672 6.286072,0.43963 12.202318,2.812953 17.017225,6.826543 1.584918,1.321144 3.602972,3.427189 4.556869,4.755556 l 0.176193,0.245369 -0.120035,0.321182 -0.12003,0.321189 z m 1.9159,-5.461369 C 68.464033,29.972094 66.796579,28.477956 65.209189,27.28575 63.518985,26.016324 61.81773,24.972239 59.873752,24.011301 58.281071,23.224022 57.156933,22.760416 55.521162,22.216253 52.970481,21.367736 50.74526,20.894505 47.967308,20.609788 46.907023,20.501121 43.787587,20.467532 42.441582,20.550268 l -0.751922,0.04626 0.02926,-0.259614 c 0.01606,-0.142792 0.03991,-0.270286 0.05298,-0.283329 0.08201,-0.082 2.144639,-0.149447 3.724265,-0.121785 1.762094,0.03088 2.265142,0.06373 3.678641,0.240332 6.574792,0.821441 12.764779,3.54565 17.999687,7.921655 0.74219,0.620419 2.831207,2.633984 3.245287,3.128078 l 0.227606,0.271587 -0.135917,0.277582 -0.135912,0.277589 z m 3.002414,-4.693738 c -1.714547,-1.72558 -3.839762,-3.455387 -6.034906,-4.912094 -6.005177,-3.985081 -12.671683,-6.164623 -20.021918,-6.545954 -1.167526,-0.06058 -3.536803,-0.03617 -4.226223,0.04358 l -0.294853,0.03406 v -0.285104 -0.285103 l 0.266774,-0.04402 c 0.432203,-0.07131 4.503451,-0.05105 5.433714,0.02702 3.133326,0.262983 5.992725,0.795373 8.668129,1.613912 6.26435,1.916578 11.77354,5.193654 16.505082,9.817844 l 0.742534,0.725686 -0.09667,0.164146 C 73.395459,27.324244 73.40791,27.32892 72.676235,26.59255 Z m 3.962014,-4.334149 C 75.603621,21.271683 74.77903,20.529747 73.942455,19.832838 67.773374,14.693697 60.42246,11.289512 52.600718,9.9495474 c -2.910196,-0.498552 -5.294004,-0.68066 -8.35417,-0.638206 l -1.867399,0.0259 6.22e-4,-0.201327 c 0.0019,-0.393421 -0.17034,-0.370081 2.706958,-0.367285 2.707237,0.0025 3.465267,0.0447 5.576143,0.309571 8.895226,1.1160876 17.264369,4.8260326 24.12178,10.6928946 0.798616,0.683257 2.864286,2.612965 2.864286,2.675766 0,0.02285 -0.09477,0.116318 -0.21061,0.207739 l -0.21061,0.166214 -0.589706,-0.562406 z m 2.49923,-6.259282 c -1.257821,-1.165509 -4.057345,-3.310715 -5.774688,-4.424997 -0.326599,-0.211911 -0.582832,-0.403072 -0.569403,-0.4248 0.01345,-0.02173 0.187767,-0.07033 0.387407,-0.107995 l 0.362977,-0.06849 0.884957,0.609585 c 1.113442,0.76697 2.536144,1.831196 3.517802,2.631431 l 0.757849,0.617785 0.375248,0.716073 c 0.206382,0.393839 0.367017,0.715071 0.356956,0.713844 -0.01009,-0.0012 -0.144659,-0.119326 -0.299105,-0.262435 z M 55.184602,4.0712544 C 51.906983,3.3770404 48.348826,3.0402804 44.667738,3.0758994 l -1.839346,0.01781 2.5e-5,-0.301577 3.1e-5,-0.301577 2.681755,0.02932 c 3.234192,0.03536 4.913389,0.167023 7.663044,0.60095 l 1.049912,0.16569 0.943854,0.476301 c 0.519123,0.261961 0.905945,0.474651 0.859612,0.47264 -0.04632,-0.0019 -0.425248,-0.07589 -0.842023,-0.164165 z"
       id="path6147" /></g></svg>
