<?xml version="1.0" encoding="UTF-8" standalone="no"?>
<!-- Created with Inkscape (http://www.inkscape.org/) -->

<svg
   width="120mm"
   height="120mm"
   viewBox="0 0 120 120"
   version="1.1"
   id="svg6525"
   xml:space="preserve"
   inkscape:version="1.2.1 (9c6d41e, 2022-07-14)"
   sodipodi:docname="spiraldrawing_flattened.svg"
   xmlns:inkscape="http://www.inkscape.org/namespaces/inkscape"
   xmlns:sodipodi="http://sodipodi.sourceforge.net/DTD/sodipodi-0.dtd"
   xmlns="http://www.w3.org/2000/svg"
   xmlns:svg="http://www.w3.org/2000/svg"><sodipodi:namedview
     id="namedview6527"
     pagecolor="#ffffff"
     bordercolor="#000000"
     borderopacity="0.25"
     inkscape:showpageshadow="2"
     inkscape:pageopacity="0.0"
     inkscape:pagecheckerboard="0"
     inkscape:deskcolor="#d1d1d1"
     inkscape:document-units="mm"
     showgrid="false"
     inkscape:zoom="2.587745"
     inkscape:cx="212.34705"
     inkscape:cy="250.02464"
     inkscape:window-width="2293"
     inkscape:window-height="1268"
     inkscape:window-x="0"
     inkscape:window-y="25"
     inkscape:window-maximized="0"
     inkscape:current-layer="layer2" /><defs
     id="defs6522" /><g
     inkscape:groupmode="layer"
     id="layer2"
     inkscape:label="SilkS"><path
       style="display:inline;fill:#000000;stroke-width:0.0165365"
       d="m 28.233645,13.753359 c 0.0039,-0.0523 0.01197,-0.147175 0.0179,-0.21084 l 0.01078,-0.115755 0.214974,-0.03725 c 0.706428,-0.122404 1.624019,-0.231762 2.389518,-0.284782 1.049381,-0.07268 2.506315,-0.06952 3.431315,0.0074 l 0.264584,0.02202 0.504362,0.257316 c 0.277399,0.141524 0.491316,0.257582 0.475373,0.257906 -0.01594,3.24e-4 -0.157331,-0.01403 -0.314193,-0.0319 -0.349967,-0.03987 -0.951433,-0.09162 -1.393147,-0.119869 -0.439312,-0.02809 -2.187269,-0.02795 -2.61276,2.1e-4 -1.022753,0.0677 -1.776922,0.15206 -2.623778,0.293508 -0.18796,0.03139 -0.348564,0.05708 -0.356895,0.05708 -0.0083,0 -0.01195,-0.04279 -0.008,-0.09508 z"
       id="path7599" /><path
       style="display:inline;fill:#000000;stroke-width:0.0165365"
       d="m 44.979697,16.935808 c -0.182443,-0.110964 -0.463356,-0.275361 -0.624251,-0.365327 -0.160897,-0.08997 -0.292485,-0.168101 -0.292419,-0.173633 0,-0.0055 0.134009,-0.04135 0.297654,-0.07959 l 0.297536,-0.06953 0.144695,0.08315 c 0.07958,0.04573 0.152923,0.0919 0.162977,0.102601 0.0284,0.03023 0.371073,0.705821 0.357533,0.704898 -0.0066,-4.5e-4 -0.161283,-0.09161 -0.343725,-0.202572 z"
       id="path7597" /><path
       style="display:inline;fill:#000000;stroke-width:0.0165365"
       d="m 46.167713,22.17852 c -0.144314,-0.132802 -0.551857,-0.476304 -0.802783,-0.676635 -2.700203,-2.155745 -5.842775,-3.590303 -9.211888,-4.205148 -2.319708,-0.423334 -4.674213,-0.445228 -6.989483,-0.06499 -0.309008,0.05075 -0.975947,0.178903 -1.113095,0.213885 l -0.04649,0.01186 0.01168,-0.188084 c 0.0064,-0.103446 0.01934,-0.193044 0.0287,-0.199107 0.02,-0.01295 0.790572,-0.163937 1.077868,-0.2112 0.556778,-0.0916 1.303609,-0.178363 1.943034,-0.225743 0.479739,-0.03555 1.852574,-0.04987 2.372981,-0.02476 2.922155,0.141016 5.720806,0.862386 8.317839,2.143976 1.627495,0.80314 3.076801,1.764265 4.487766,2.976116 l 0.304041,0.261137 -0.05062,0.04275 c -0.02784,0.02351 -0.09558,0.08235 -0.150538,0.130737 l -0.09992,0.08799 z"
       id="path7595" /><path
       style="display:inline;fill:#000000;stroke-width:0.0165365"
       d="m 43.732178,24.248119 c -1.871627,-1.587559 -4.08345,-2.781166 -6.416145,-3.462463 -1.207816,-0.35276 -2.338613,-0.557871 -3.654557,-0.662885 -0.438746,-0.03501 -1.597568,-0.04915 -2.067058,-0.02522 -1.167098,0.0595 -2.273381,0.222651 -3.364516,0.496199 -0.21792,0.05463 -0.398487,0.09707 -0.401255,0.0943 -0.0028,-0.0028 -1.65e-4,-0.08059 0.006,-0.172941 l 0.011,-0.167906 0.05952,-0.01565 c 2.467,-0.648671 4.961604,-0.761675 7.483267,-0.338988 2.881287,0.482968 5.642034,1.696775 7.9717,3.504891 0.266738,0.207024 0.653299,0.52369 0.790828,0.647839 l 0.06322,0.05707 -0.09449,0.127106 c -0.05197,0.06991 -0.09903,0.132275 -0.104565,0.138594 -0.0055,0.0063 -0.132857,-0.09266 -0.282926,-0.21995 z"
       id="path7593" /><path
       style="display:inline;fill:#000000;stroke-width:0.0165365"
       d="m 42.252165,26.676103 c -2.722673,-2.46717 -6.243809,-3.831894 -9.886501,-3.831817 -1.57923,0 -3.079017,0.241381 -4.573769,0.736015 -0.204164,0.06756 -0.372869,0.121179 -0.374898,0.11915 -0.0075,-0.0075 0.06096,-0.317182 0.07259,-0.328333 0.0066,-0.0064 0.138566,-0.05287 0.293182,-0.103348 1.213295,-0.396139 2.440956,-0.626087 3.76757,-0.705683 0.431605,-0.0259 1.630208,-0.01139 2.036727,0.02465 3.305252,0.293034 6.29576,1.574882 8.76751,3.758098 0.130124,0.114935 0.236429,0.213347 0.236232,0.218692 -1.98e-4,0.0053 -0.03554,0.06995 -0.07855,0.143563 l -0.07819,0.133844 z"
       id="path7591" /><path
       style="display:inline;fill:#000000;stroke-width:0.0165365"
       d="m 85.184838,27.057225 0.18575,-0.18575 0.10895,0.107202 c 0.0599,0.05896 0.13883,0.142548 0.17536,0.185749 l 0.0664,0.07855 h -0.36112 -0.36112 z"
       id="path7589" /><path
       style="display:inline;fill:#000000;stroke-width:0.0165365"
       d="m 40.995395,28.90596 c -0.209187,-0.210508 -0.476872,-0.466928 -0.594858,-0.569828 -1.902819,-1.659503 -4.225526,-2.692863 -6.689452,-2.9761 -0.548458,-0.06305 -0.778608,-0.07547 -1.397331,-0.0754 -0.738807,0 -1.186152,0.03237 -1.843815,0.133105 -1.618833,0.247961 -3.184072,0.830893 -4.580599,1.705919 -0.122783,0.07693 -0.249287,0.158405 -0.281119,0.181048 -0.06775,0.04819 0.04756,-0.06588 0.513708,-0.50821 l 0.339826,-0.322461 0.280166,-0.13904 c 1.503785,-0.746292 2.88256,-1.134638 4.596182,-1.294562 0.313917,-0.0293 1.614177,-0.02918 1.959571,1.82e-4 2.550806,0.216808 4.895266,1.14961 6.879166,2.73705 0.396108,0.31695 0.991759,0.861386 1.213589,1.109244 l 0.111962,0.125097 -0.05312,0.14075 c -0.02922,0.07741 -0.05772,0.139669 -0.06333,0.138349 -0.0056,-0.0013 -0.181358,-0.17463 -0.390544,-0.385136 z"
       id="path7587" /><path
       style="display:inline;fill:#000000;stroke-width:0.0165365"
       d="m 101.82456,30.936754 c -0.19543,-0.20511 -0.3851,-0.399724 -0.42148,-0.432479 -0.0364,-0.03275 -0.18708,-0.175604 -0.33488,-0.317446 l -0.26873,-0.257892 0.12817,0.01089 c 0.0705,0.006 0.21505,0.01626 0.32122,0.02283 l 0.19306,0.01194 0.46412,0.468232 0.46413,0.468231 -0.0835,0.18754 c -0.0459,0.103148 -0.0887,0.192837 -0.0951,0.199311 -0.006,0.0065 -0.17155,-0.156046 -0.36699,-0.361155 z"
       id="path7585" /><path
       style="display:inline;fill:#000000;stroke-width:0.0165365"
       d="m 9.3087778,31.532007 -0.13443,-0.290539 0.06481,-0.250515 c 0.03564,-0.137785 0.11018,-0.411494 0.165634,-0.608241 l 0.100826,-0.357723 0.117937,-0.0109 c 0.06487,-0.006 0.163699,-0.01526 0.219631,-0.02059 l 0.101696,-0.0097 -0.07353,0.246026 c -0.101523,0.339692 -0.28761,1.04053 -0.35292,1.329164 -0.02984,0.131878 -0.05897,0.245128 -0.06474,0.251667 -0.0058,0.0065 -0.07098,-0.118855 -0.144913,-0.27865 z"
       id="path7583" /><path
       style="display:inline;fill:#000000;stroke-width:0.0165365"
       d="m 100.29247,34.3494 c -0.1456,-0.175015 -0.360732,-0.42611 -0.478062,-0.557988 -0.27361,-0.307525 -0.99938,-1.043049 -1.33002,-1.34789 -1.15975,-1.069256 -2.46364,-2.010559 -3.82405,-2.760643 -0.16144,-0.08901 -0.29353,-0.16292 -0.29353,-0.164243 0,-0.0013 0.18418,0.0073 0.40928,0.01914 l 0.40928,0.02155 0.32246,0.193437 c 1.84104,1.1044 3.57384,2.589078 4.996242,4.280819 0.1136,0.135111 0.21173,0.254355 0.21806,0.264985 0.009,0.01474 -0.13245,0.336562 -0.15962,0.363734 -0.003,0.0029 -0.12444,-0.137884 -0.27004,-0.312899 z"
       id="path7581" /><path
       style="display:inline;fill:#000000;stroke-width:0.0165365"
       d="m 12.126104,37.2579 -0.178536,-0.34937 8.05e-4,-0.34726 c 8.71e-4,-0.3752 0.02048,-0.79754 0.0595,-1.28158 0.140859,-1.747279 0.523567,-3.515937 1.119123,-5.171948 0.110755,-0.307967 0.138145,-0.369261 0.167644,-0.375154 0.01939,-0.0039 0.110623,-0.01121 0.202734,-0.01631 l 0.167475,-0.0093 -0.08144,0.21079 c -0.125081,0.323741 -0.397759,1.146818 -0.508104,1.533707 -0.348191,1.22082 -0.572672,2.417003 -0.687384,3.662825 -0.05355,0.58161 -0.06321,0.79713 -0.07308,1.63094 l -0.0102,0.862 z"
       id="path7579" /><path
       style="display:inline;fill:#000000;stroke-width:0.0165365"
       d="m 98.865568,37.51625 c -0.59698,-0.87586 -1.20066,-1.60203 -1.98436,-2.387 -0.87086,-0.872276 -1.60132,-1.473237 -2.58054,-2.12307 -3.5475,-2.354197 -7.82595,-3.254534 -11.97942,-2.520897 -0.26194,0.04627 -0.23955,0.05992 -0.21215,-0.12932 0.0128,-0.08868 0.0283,-0.165805 0.0344,-0.171394 0.0146,-0.01336 0.58514,-0.104015 0.92061,-0.146278 0.74762,-0.09419 1.2446,-0.123572 2.09186,-0.123672 0.73022,-1.65e-4 1.05731,0.0146 1.65364,0.07423 3.5264,0.352643 6.82598,1.79446 9.51673,4.158519 0.37901,0.33299 1.18523,1.139432 1.50398,1.504392 0.48581,0.55624 0.99515,1.21192 1.30541,1.68048 l 0.0616,0.093 -0.0791,0.15921 c -0.0435,0.0876 -0.0833,0.15921 -0.0884,0.15921 -0.005,0 -0.079,-0.10232 -0.16429,-0.22738 z"
       id="path7577" /><path
       style="display:inline;fill:#000000;stroke-width:0.0165365"
       d="m 97.535798,40.57549 c -0.48882,-0.99627 -1.27343,-2.14265 -2.10233,-3.07164 -0.24123,-0.27037 -0.87558,-0.89715 -1.15228,-1.13855 -2.27612,-1.985681 -4.99827,-3.155948 -7.96763,-3.425321 -1.44168,-0.130785 -3.01915,-0.01162 -4.45244,0.336353 -0.10687,0.02595 -0.19431,0.04004 -0.19431,0.03132 0,-0.0087 0.0119,-0.08093 0.0265,-0.160464 l 0.0265,-0.144608 0.22572,-0.05257 c 1.58583,-0.369303 3.26801,-0.454522 4.91381,-0.24893 2.60307,0.325177 5.1028,1.393627 7.16561,3.06278 0.72112,0.58349 1.52318,1.38556 2.10674,2.10673 0.43589,0.53867 0.83209,1.10731 1.19048,1.70858 0.17599,0.29526 0.43467,0.76924 0.43481,0.79672 1.7e-4,0.0284 -0.1353,0.32776 -0.14829,0.32776 -0.005,0 -0.0382,-0.0577 -0.0728,-0.12816 z"
       id="path7575" /><path
       style="display:inline;fill:#000000;stroke-width:0.0165365"
       d="m 96.334648,44.20457 c 0,-0.0117 -0.0336,-0.14754 -0.0747,-0.30179 -0.41522,-1.55896 -1.17506,-3.06824 -2.17252,-4.31534 -0.48687,-0.60872 -1.12352,-1.25382 -1.72824,-1.75119 -0.92689,-0.76235 -2.05258,-1.41774 -3.17704,-1.84973 -2.56486,-0.98535 -5.35946,-1.02346 -7.93415,-0.10822 -0.15304,0.0544 -0.28111,0.096 -0.2846,0.0926 -0.009,-0.009 0.084,-0.29356 0.10161,-0.31004 0.0407,-0.0382 0.68061,-0.23949 1.10616,-0.34801 1.02773,-0.26207 2.0788,-0.382888 3.11712,-0.35829 0.49434,0.0117 0.74454,0.0297 1.20716,0.0869 2.03866,0.25207 3.98149,1.03783 5.63066,2.27728 0.48792,0.3667 0.8128,0.64953 1.26615,1.10226 0.3692,0.3687 0.59586,0.62063 0.89326,0.99285 0.97481,1.22 1.71918,2.6543 2.15776,4.15766 l 0.0575,0.19721 -0.0762,0.22861 c -0.0719,0.21574 -0.09,0.25739 -0.09,0.20726 z"
       id="path7573" /><path
       style="display:inline;fill:#000000;stroke-width:0.0165365"
       d="m 27.083665,45.51611 c -1.983218,-1.11024 -3.49164,-2.87815 -4.292893,-5.03138 -0.942259,-2.53216 -0.773827,-5.38144 0.462141,-7.817797 1.106178,-2.180518 2.966158,-3.875266 5.249497,-4.783161 0.942388,-0.37471 1.88388,-0.594749 2.967985,-0.693656 0.295811,-0.02699 1.314283,-0.02687 1.612305,1.98e-4 1.395296,0.126687 2.608862,0.466171 3.803385,1.063962 0.595837,0.298182 1.059345,0.581831 1.570963,0.961367 0.843814,0.625971 1.638388,1.426837 2.227367,2.245001 l 0.10181,0.141427 -0.02634,0.185941 c -0.02102,0.148383 -0.03045,0.18161 -0.0467,0.164498 -0.01119,-0.01179 -0.07437,-0.09958 -0.140389,-0.195076 -0.698775,-1.010776 -1.665333,-1.953989 -2.719328,-2.653648 -1.413261,-0.938145 -2.948471,-1.480721 -4.688086,-1.656869 -0.405892,-0.0411 -1.41072,-0.04131 -1.810742,-3.64e-4 -0.791169,0.08096 -1.478095,0.223634 -2.182813,0.453365 -2.841651,0.926348 -5.098491,3.078406 -6.135001,5.850166 -0.288688,0.771989 -0.466788,1.529536 -0.563721,2.397786 -0.03549,0.31793 -0.04966,1.24453 -0.02454,1.60475 0.231013,3.31195 2.163117,6.24561 5.085959,7.72241 l 0.26065,0.13169 -0.105427,0.0102 c -0.05798,0.006 -0.165004,0.0149 -0.237822,0.0207 l -0.132398,0.0106 -0.235867,-0.13205 z"
       id="path7571" /><path
       style="display:inline;fill:#000000;stroke-width:0.0165365"
       d="m 24.235695,46.01609 c -1.222489,-1.04361 -2.185505,-2.272 -2.893871,-3.69132 -1.901537,-3.81005 -1.596348,-8.35977 0.799801,-11.923332 0.381137,-0.566829 0.755691,-1.03573 1.27129,-1.59152 l 0.103444,-0.111507 0.198437,-0.04156 c 0.109141,-0.02286 0.217041,-0.04582 0.239779,-0.05102 0.02995,-0.0069 -0.02479,0.05809 -0.198714,0.235753 -0.650764,0.664727 -1.166986,1.320191 -1.632221,2.072484 -2.139988,3.460398 -2.335401,7.753332 -0.516362,11.343702 0.699528,1.38071 1.663923,2.59588 2.839023,3.57727 0.120382,0.10053 0.215589,0.18608 0.211571,0.1901 -0.0076,0.008 -0.285409,0.0679 -0.31469,0.0683 -0.0091,1.7e-4 -0.05747,-0.0347 -0.107487,-0.0774 z"
       id="path7569" /><path
       style="display:inline;fill:#000000;stroke-width:0.0165365"
       d="m 34.504835,46.11996 c -0.113688,-0.0298 -0.195544,-0.0586 -0.181901,-0.064 0.01364,-0.005 0.10666,-0.0368 0.206706,-0.0696 1.033403,-0.33955 2.069278,-0.92954 2.965782,-1.6892 0.246294,-0.2087 0.691968,-0.65266 0.90977,-0.90627 1.202496,-1.40022 1.906731,-3.04719 2.09652,-4.90306 0.03446,-0.33701 0.03899,-1.17684 0.0081,-1.50482 -0.14158,-1.50362 -0.617396,-2.855405 -1.426725,-4.053288 -1.111118,-1.64456 -2.789269,-2.855014 -4.674946,-3.372048 -0.69536,-0.190661 -1.278274,-0.275246 -2.011708,-0.291912 -0.465892,-0.01059 -0.824629,0.0075 -1.240235,0.06269 -3.849753,0.510776 -6.764244,3.655207 -6.935489,7.482658 -0.125755,2.81074 1.287315,5.44967 3.685239,6.88223 1.096372,0.65499 2.319039,1.00772 3.605784,1.04022 1.813443,0.0458 3.557707,-0.57547 4.919596,-1.75228 0.220898,-0.19088 0.634995,-0.61063 0.804142,-0.81512 0.817053,-0.98779 1.3398,-2.12197 1.550728,-3.36453 0.06391,-0.37651 0.08951,-0.70206 0.08967,-1.14063 1.65e-4,-0.43163 -0.01525,-0.64947 -0.0737,-1.04179 -0.355081,-2.383409 -1.962028,-4.418706 -4.181905,-5.296643 -1.231073,-0.486875 -2.523493,-0.597076 -3.809714,-0.324844 -2.377436,0.503191 -4.276326,2.315111 -4.870529,4.647457 -0.138885,0.54514 -0.189561,0.95876 -0.189237,1.54453 5.46e-4,0.97402 0.189219,1.80432 0.608754,2.67891 0.765758,1.59634 2.218425,2.78659 3.92215,3.21363 0.530673,0.13302 0.874238,0.17462 1.44501,0.17498 0.44306,2.8e-4 0.595943,-0.0114 0.97302,-0.0744 1.73658,-0.29004 3.248108,-1.36367 4.08707,-2.90304 0.332178,-0.6095 0.534298,-1.23904 0.639617,-1.99223 0.04034,-0.28846 0.04039,-1.02791 1.65e-4,-1.32938 -0.08873,-0.66385 -0.269312,-1.25432 -0.556301,-1.81901 -1.092319,-2.149275 -3.449365,-3.296707 -5.788422,-2.817854 -0.980527,0.200734 -1.946061,0.733233 -2.632242,1.451699 -1.098487,1.15017 -1.586283,2.700165 -1.334827,4.241465 0.31811,1.94987 1.800783,3.50892 3.710754,3.90191 0.368105,0.0757 0.475253,0.0854 0.942578,0.0852 0.346406,-2e-4 0.489111,-0.007 0.636654,-0.0299 1.027486,-0.16007 1.928831,-0.61813 2.613053,-1.32796 1.658975,-1.72106 1.663205,-4.40294 0.0096,-6.066089 -0.622141,-0.62572 -1.430556,-1.035799 -2.316697,-1.175177 -0.26198,-0.0412 -0.766668,-0.05003 -1.039633,-0.01819 -1.377959,0.160776 -2.532483,0.967097 -3.128348,2.184846 -0.193549,0.39555 -0.307854,0.77363 -0.364703,1.20632 -0.02798,0.21293 -0.03132,0.71573 -0.0061,0.91862 0.07063,0.56843 0.285044,1.15627 0.591114,1.62057 0.36255,0.54997 0.867906,0.99667 1.44906,1.28087 1.599456,0.78218 3.509329,0.2823 4.482476,-1.17322 0.936736,-1.40107 0.684211,-3.30299 -0.57825,-4.35517 -0.589587,-0.491379 -1.284702,-0.746494 -2.033984,-0.746494 -1.457097,0 -2.685455,0.999174 -2.971502,2.417074 -0.03268,0.16198 -0.03775,0.2368 -0.03739,0.55122 3.63e-4,0.31348 0.0056,0.38782 0.03756,0.53744 0.122122,0.57091 0.36241,1.03076 0.746213,1.42808 0.391792,0.4056 0.867534,0.66678 1.439639,0.79037 0.14945,0.0323 0.222001,0.0375 0.520899,0.0375 0.297765,0 0.371481,-0.005 0.517151,-0.037 0.354786,-0.0772 0.650419,-0.19729 0.925053,-0.37579 0.59074,-0.38396 0.9819,-0.95852 1.130994,-1.6613 0.05279,-0.24881 0.05369,-0.6757 0.002,-0.9347 -0.200499,-1.00424 -0.938958,-1.74457 -1.930853,-1.93575 -0.199965,-0.0385 -0.589536,-0.0389 -0.801418,-7.1e-4 -0.444121,0.08 -0.850873,0.28719 -1.171824,0.59684 -0.332281,0.32059 -0.542424,0.69845 -0.6416,1.15367 -0.04217,0.19358 -0.04176,0.64394 7.77e-4,0.83953 0.185531,0.85319 0.830493,1.48483 1.664466,1.63009 0.228059,0.0397 0.595311,0.0254 0.814501,-0.0319 0.851,-0.22212 1.43381,-0.96251 1.43381,-1.82148 0,-0.48151 -0.180809,-0.9193 -0.51959,-1.25808 -0.215844,-0.21584 -0.45681,-0.35697 -0.761985,-0.44626 -0.212551,-0.0622 -0.545405,-0.0739 -0.770907,-0.0272 -0.579344,0.12013 -1.038974,0.52346 -1.219408,1.07004 -0.331832,1.00521 0.428056,2.0324 1.458036,1.97092 0.654475,-0.0391 1.171153,-0.50798 1.26975,-1.15237 0.0374,-0.24442 -0.0045,-0.49192 -0.124714,-0.73587 -0.31244,-0.63428 -1.071905,-0.86969 -1.669529,-0.51751 -0.490821,0.28924 -0.676465,0.9108 -0.42269,1.41523 0.03529,0.0701 0.09823,0.16624 0.139865,0.21354 0.09584,0.10889 0.288085,0.23808 0.424172,0.28504 0.14621,0.0505 0.383492,0.0626 0.533213,0.0273 0.686736,-0.16191 0.949247,-0.99193 0.466426,-1.47475 -0.158879,-0.15888 -0.3472,-0.23825 -0.565299,-0.23825 -0.494745,0 -0.86001,0.47218 -0.718222,0.92844 0.08964,0.28843 0.324553,0.46425 0.623061,0.46631 0.123279,8.6e-4 0.145503,-0.004 0.259556,-0.0607 0.305506,-0.15098 0.420041,-0.48782 0.26361,-0.77523 -0.08979,-0.16498 -0.248732,-0.26114 -0.431638,-0.26114 -0.121631,0 -0.199604,0.0258 -0.294219,0.0973 -0.201766,0.15249 -0.234282,0.45386 -0.06772,0.62762 0.0798,0.0832 0.163941,0.1201 0.275441,0.12064 0.337405,0.002 0.488113,-0.41027 0.216975,-0.59299 -0.03069,-0.0207 -0.07144,-0.037 -0.09056,-0.0363 -0.0276,9.9e-4 -0.02442,0.005 0.01544,0.0207 0.122357,0.0473 0.193396,0.14772 0.193396,0.27333 0,0.0899 -0.02913,0.15584 -0.09743,0.22046 -0.153686,0.14541 -0.418456,0.0919 -0.519411,-0.10492 -0.07389,-0.14407 -0.05481,-0.29519 0.05271,-0.41733 0.189729,-0.21554 0.549875,-0.15786 0.683051,0.10939 0.05399,0.10834 0.05884,0.28153 0.01084,0.38724 -0.04356,0.0959 -0.133529,0.19013 -0.227339,0.23805 -0.06741,0.0344 -0.103081,0.0408 -0.228696,0.0408 -0.133743,0 -0.157718,-0.005 -0.23653,-0.0486 -0.406078,-0.22496 -0.381189,-0.81633 0.04272,-1.01502 0.08411,-0.0394 0.113844,-0.0443 0.268226,-0.0438 0.152784,4.3e-4 0.185086,0.006 0.269021,0.0447 0.121032,0.0561 0.257385,0.19176 0.314794,0.31322 0.202281,0.42795 -0.07419,0.92839 -0.55535,1.00526 -0.324095,0.0518 -0.663681,-0.12895 -0.812531,-0.43242 -0.285145,-0.58134 0.139259,-1.23718 0.800603,-1.23718 0.259875,0 0.473106,0.09 0.66296,0.2797 0.44982,0.44954 0.37033,1.18657 -0.167802,1.55583 -0.201806,0.13848 -0.397863,0.19045 -0.672809,0.17835 -0.302912,-0.0133 -0.513062,-0.10854 -0.740367,-0.33543 -0.213815,-0.21342 -0.318182,-0.44887 -0.334055,-0.75363 -0.01877,-0.36047 0.08882,-0.66034 0.329076,-0.91717 0.509695,-0.54487 1.390499,-0.53597 1.916058,0.0194 0.254377,0.26879 0.379114,0.58444 0.379349,0.95997 1.99e-4,0.30385 -0.07433,0.56317 -0.229943,0.80021 -0.209659,0.31937 -0.536054,0.5483 -0.919225,0.64476 -0.217415,0.0547 -0.516212,0.0516 -0.74414,-0.008 -0.614877,-0.16018 -1.071727,-0.65635 -1.191738,-1.29429 -0.03663,-0.19469 -0.02531,-0.53887 0.02358,-0.71749 0.0456,-0.16658 0.118723,-0.33528 0.212865,-0.4911 0.09,-0.14895 0.360229,-0.42883 0.504784,-0.52279 0.564236,-0.36675 1.221347,-0.40633 1.823031,-0.10982 0.234356,0.11549 0.373459,0.21723 0.542111,0.39651 0.714391,0.7594 0.698796,1.9482 -0.03564,2.71693 -0.398937,0.41756 -0.923495,0.64051 -1.506926,0.64047 -0.61533,0 -1.139516,-0.22407 -1.569971,-0.67098 -0.310142,-0.322 -0.491376,-0.66948 -0.591179,-1.13345 -0.04187,-0.19465 -0.04181,-0.66075 1.66e-4,-0.85782 0.0414,-0.19463 0.129139,-0.45155 0.207282,-0.60696 0.215988,-0.42958 0.579426,-0.80426 0.999743,-1.03066 0.797578,-0.42961 1.774966,-0.382749 2.538254,0.1217 0.577655,0.38176 0.96224,0.95263 1.11479,1.65476 0.03073,0.14143 0.03641,0.2204 0.03703,0.51435 6.28e-4,0.30283 -0.0042,0.37029 -0.03778,0.52715 -0.148021,0.69159 -0.530375,1.27936 -1.094608,1.68268 -1.029622,0.736 -2.429662,0.6878 -3.44794,-0.11869 -0.05482,-0.0434 -0.181713,-0.16364 -0.28199,-0.26715 -0.704422,-0.72715 -0.98824,-1.79874 -0.741503,-2.79964 0.05648,-0.22912 0.11154,-0.38057 0.222425,-0.61185 0.474124,-0.98889 1.429577,-1.654712 2.549598,-1.776714 0.968385,-0.105486 1.980775,0.259895 2.686961,0.969754 0.944268,0.94917 1.246502,2.37544 0.773903,3.65214 -0.272324,0.73566 -0.804593,1.38288 -1.487937,1.80929 -0.32367,0.20197 -0.807122,0.39164 -1.199196,0.47047 -0.695777,0.13989 -1.447259,0.0751 -2.100889,-0.1812 -2.021243,-0.7925 -2.992292,-3.11302 -2.156626,-5.15371 0.53498,-1.306422 1.724948,-2.251603 3.139101,-2.493365 0.588515,-0.100612 1.24119,-0.06807 1.820768,0.09077 0.57139,0.1566 1.126284,0.440797 1.587945,0.813287 0.333582,0.269149 0.715754,0.700146 0.9576,1.079948 0.146186,0.22956 0.351565,0.67091 0.447265,0.96113 0.171786,0.52097 0.232455,0.94164 0.219111,1.51933 -0.0089,0.38525 -0.02809,0.5498 -0.103817,0.88987 -0.179598,0.80658 -0.587992,1.56171 -1.170879,2.16497 -0.256355,0.26532 -0.470652,0.4449 -0.770959,0.64608 -0.592626,0.39699 -1.226442,0.64039 -1.967839,0.7557 -0.23785,0.037 -0.812296,0.0507 -1.091406,0.026 -1.550702,-0.13707 -2.950326,-1.01953 -3.765619,-2.37423 -0.351078,-0.58335 -0.580931,-1.25199 -0.677415,-1.97059 -0.0396,-0.2949 -0.03943,-0.95853 2.98e-4,-1.24575 0.142275,-1.02834 0.538233,-1.931821 1.1813,-2.695444 0.176439,-0.209517 0.534043,-0.557453 0.745544,-0.72539 0.382151,-0.303436 0.910278,-0.608319 1.360299,-0.78529 0.399033,-0.156918 0.867088,-0.275063 1.329217,-0.335513 0.297571,-0.03893 0.976324,-0.03894 1.271348,0 1.070337,0.14118 1.980724,0.528009 2.820601,1.198494 0.203089,0.162129 0.635248,0.594287 0.797376,0.797377 0.694511,0.869974 1.097741,1.833746 1.231169,2.942666 0.03471,0.28843 0.03932,0.92591 0.0087,1.19889 -0.151841,1.35283 -0.701794,2.5259 -1.63096,3.47891 -0.491806,0.50443 -0.992062,0.8675 -1.630177,1.18315 -1.7066,0.84419 -3.71448,0.82278 -5.439458,-0.058 -0.599041,-0.30587 -1.067641,-0.6495 -1.563467,-1.1465 -0.490176,-0.49135 -0.829945,-0.95796 -1.138937,-1.56414 -0.795172,-1.55997 -0.917803,-3.33287 -0.345804,-4.99937 0.665285,-1.938287 2.198907,-3.443984 4.180956,-4.104829 0.731045,-0.243741 1.477206,-0.353052 2.273763,-0.333099 1.535105,0.03845 2.93471,0.555633 4.167187,1.539857 0.271375,0.216712 0.791891,0.738622 1.011725,1.014432 0.856668,1.074804 1.358134,2.268659 1.529732,3.641859 0.02405,0.19243 0.02987,0.35734 0.02947,0.83509 -4.3e-4,0.52218 -0.005,0.62884 -0.03749,0.86817 -0.197642,1.45783 -0.765308,2.73602 -1.70115,3.83041 -0.201389,0.23551 -0.644979,0.67433 -0.873627,0.86422 -1.043778,0.86688 -2.333875,1.44284 -3.671094,1.63896 -0.450197,0.066 -0.574172,0.0741 -1.124479,0.0731 -0.591066,-0.001 -0.868468,-0.0245 -1.35599,-0.11445 -2.223545,-0.41043 -4.147464,-1.77879 -5.294013,-3.76528 -0.493621,-0.85525 -0.842555,-1.88671 -0.972333,-2.87425 -0.06807,-0.51795 -0.08676,-1.24004 -0.0441,-1.70325 0.183609,-1.993575 1.025295,-3.767265 2.437634,-5.136855 2.090974,-2.02768 5.089011,-2.800298 7.944206,-2.047284 0.511797,0.134979 1.008601,0.320369 1.507157,0.56242 0.484571,0.235259 0.852676,0.453687 1.275811,0.75705 1.600881,1.147731 2.77133,2.842404 3.296718,4.773259 0.08069,0.29655 0.08948,0.35073 0.118064,0.72761 0.05784,0.7627 0.09846,1.15585 0.158884,1.53788 0.02948,0.18635 0.03098,0.23518 0.01529,0.49609 -0.07383,1.22793 -0.358616,2.33273 -0.876348,3.39965 -0.883472,1.82064 -2.301591,3.25834 -4.101673,4.15829 -0.416297,0.20813 -0.988416,0.44839 -1.057639,0.44415 -0.01402,-8.6e-4 -0.118517,-0.0259 -0.232205,-0.0557 z"
       id="path7567" /><path
       style="display:inline;fill:#000000;stroke-width:0.0165365"
       d="m 14.900864,46.79131 c -0.143082,-0.0475 -0.162924,-0.0703 -0.181374,-0.20895 -0.0061,-0.0455 -0.01857,-0.1222 -0.02782,-0.17051 -0.0092,-0.0483 -0.0119,-0.10039 -0.0059,-0.11575 0.009,-0.023 0.01547,-0.0191 0.03661,0.0217 0.03042,0.0587 0.209383,0.37371 0.256045,0.45062 0.03672,0.0605 0.03621,0.0607 -0.07758,0.0229 z"
       id="path7565" /><path
       style="display:inline;fill:#000000;stroke-width:0.0165365"
       d="m 21.530421,46.67745 c -0.552647,-0.59361 -0.987425,-1.14121 -1.427847,-1.79834 -1.823513,-2.7208 -2.638658,-5.98493 -2.314653,-9.26869 0.18569,-1.881936 0.756282,-3.747343 1.651495,-5.399151 0.134375,-0.24794 0.408801,-0.719336 0.492947,-0.846758 0.01097,-0.01662 0.384191,-0.07457 0.384191,-0.05966 0,0.0027 -0.03474,0.05886 -0.07719,0.124898 -1.129646,1.756933 -1.858797,3.770701 -2.121154,5.858211 -0.08066,0.6418 -0.09099,0.83669 -0.09118,1.71979 -1.82e-4,0.88474 0.0096,1.06988 0.09142,1.72806 0.210827,1.69617 0.762958,3.41595 1.568808,4.88653 0.604248,1.10267 1.367584,2.14392 2.171298,2.96181 0.13929,0.14175 0.159629,0.16903 0.133816,0.17951 -0.07279,0.0295 -0.261079,0.0916 -0.277963,0.0916 -0.01017,0 -0.09296,-0.08 -0.183988,-0.17776 z"
       id="path7563" /><path
       style="display:inline;fill:#000000;stroke-width:0.0165365"
       d="m 37.357374,47.00274 c -0.06367,-0.0266 -0.129924,-0.0543 -0.147241,-0.0617 -0.02595,-0.011 -0.0013,-0.0319 0.14056,-0.11866 1.297226,-0.79389 2.46303,-1.91606 3.307336,-3.18354 0.440854,-0.66181 0.861206,-1.47822 1.115368,-2.16627 0.0336,-0.091 0.06682,-0.17163 0.07384,-0.17929 0.007,-0.008 0.02219,0.0147 0.03371,0.0496 0.01153,0.0349 0.04536,0.11447 0.07519,0.17672 0.04488,0.0937 0.05138,0.12071 0.03767,0.15675 -0.08232,0.21651 -0.297526,0.69512 -0.434995,0.96739 -0.79241,1.56945 -1.944087,2.91903 -3.382855,3.96415 -0.252229,0.18321 -0.65547,0.44605 -0.681819,0.44441 -0.01156,-7.1e-4 -0.0731,-0.023 -0.13677,-0.0496 z"
       id="path7561" /><path
       style="display:inline;fill:#000000;stroke-width:0.0165365"
       d="m 18.857471,47.68617 c -0.817388,-0.99527 -1.437742,-1.94096 -2.014959,-3.07165 -1.092135,-2.13934 -1.699523,-4.43091 -1.818963,-6.86263 -0.02407,-0.48993 -0.01058,-1.57439 0.0252,-2.02571 0.167821,-2.117337 0.679026,-4.080212 1.55257,-5.961396 l 0.107504,-0.23151 0.177385,-0.0128 c 0.09756,-0.007 0.18073,-0.0095 0.184818,-0.0054 0.0041,0.0041 -0.04999,0.128596 -0.12017,0.276683 -0.945004,1.994034 -1.47107,4.074276 -1.596695,6.313873 -0.02528,0.45064 -0.01052,1.70552 0.02501,2.12579 0.110536,1.30777 0.32671,2.43508 0.696409,3.63164 0.636364,2.05964 1.688384,3.99513 3.071865,5.65156 0.116816,0.13986 0.206273,0.25965 0.198795,0.26619 -0.01886,0.0165 -0.273918,0.11637 -0.296892,0.11626 -0.01029,0 -0.09663,-0.095 -0.191868,-0.21093 z"
       id="path7559" /><path
       style="display:inline;fill:#000000;stroke-width:0.0165365"
       d="m 39.705551,48.12641 c -0.06367,-0.0366 -0.121814,-0.0724 -0.129221,-0.0796 -0.0074,-0.007 0.07222,-0.0807 0.176948,-0.16346 1.31836,-1.04145 2.429032,-2.34477 3.26939,-3.83647 0.155928,-0.27678 0.16221,-0.2852 0.185123,-0.24805 0.08837,0.1433 0.144049,0.24395 0.144049,0.26039 0,0.0305 -0.05823,0.13724 -0.2511,0.46029 -0.802439,1.34408 -1.837367,2.53796 -3.047312,3.51534 -0.108805,0.0879 -0.205543,0.15941 -0.214974,0.15894 -0.0094,-4.8e-4 -0.06924,-0.0308 -0.132903,-0.0674 z"
       id="path7557" /><path
       style="display:inline;fill:#000000;stroke-width:0.0165365"
       d="m 42.005957,49.53838 -0.130451,-0.093 0.04777,-0.0405 c 0.172277,-0.14623 0.602451,-0.55451 0.833252,-0.79084 0.691114,-0.70766 1.299809,-1.45955 1.840373,-2.27332 l 0.248711,-0.37441 0.09234,0.0996 c 0.154179,0.16632 0.152744,0.13643 0.0167,0.34749 -0.481636,0.7472 -1.092557,1.52192 -1.764968,2.23819 -0.375816,0.40033 -0.988774,0.98281 -1.032105,0.98078 -0.01164,-5.5e-4 -0.07987,-0.0428 -0.151618,-0.094 z"
       id="path7555" /><path
       style="display:inline;fill:#000000;stroke-width:0.0165365"
       d="m 44.417527,51.335 c -0.07226,-0.0563 -0.13837,-0.10865 -0.146918,-0.11635 -0.0091,-0.008 0.167903,-0.19945 0.430389,-0.4648 0.245261,-0.24793 0.53549,-0.55124 0.644955,-0.67403 0.533227,-0.59811 1.004906,-1.19726 1.44501,-1.83554 0.08466,-0.12279 0.155855,-0.22559 0.158206,-0.22847 0.0071,-0.009 0.288738,0.21329 0.288738,0.22749 0,0.0179 -0.403016,0.59013 -0.594689,0.84434 -0.535738,0.71051 -1.10969,1.36868 -1.749155,2.00581 l -0.345157,0.3439 z"
       id="path7553" /><path
       style="display:inline;fill:#000000;stroke-width:0.0165365"
       d="m 75.909888,53.06895 c -1.14907,-1.45669 -1.93116,-3.27963 -2.21183,-5.1554 -0.0777,-0.5193 -0.13253,-1.23272 -0.0974,-1.26701 0.0116,-0.0113 0.0732,-0.062 0.13689,-0.1125 l 0.11576,-0.0919 0.0117,0.27681 c 0.0978,2.3147 0.94008,4.55753 2.37215,6.31672 0.0759,0.0932 0.13796,0.1732 0.13796,0.17777 0,0.005 -0.0776,0.008 -0.17236,0.008 h -0.17237 z"
       id="path7551" /><path
       style="display:inline;fill:#000000;stroke-width:0.0165365"
       d="m 73.147858,53.01095 c -0.77005,-1.2996 -1.32059,-2.74801 -1.60752,-4.2292 -0.0628,-0.32397 -0.11614,-0.65298 -0.10704,-0.65985 0.003,-0.002 0.0641,-0.0403 0.13539,-0.0842 0.13656,-0.0841 0.15886,-0.0835 0.15946,0.004 5e-4,0.0733 0.11815,0.72967 0.18306,1.02126 0.26283,1.18078 0.70947,2.36881 1.28379,3.41478 0.13162,0.23972 0.32772,0.57446 0.4109,0.70141 l 0.028,0.0427 h -0.18056 -0.18056 z"
       id="path7549" /><path
       style="display:inline;fill:#000000;stroke-width:0.0165365"
       d="m 70.451888,53.45078 c -0.43211,-0.81743 -0.85959,-1.89911 -1.14548,-2.89852 -0.0982,-0.34339 -0.26521,-1.02076 -0.27656,-1.12187 -0.005,-0.0429 0.005,-0.0506 0.14774,-0.11889 0.14954,-0.0714 0.15309,-0.0722 0.16125,-0.0368 0.005,0.0199 0.0382,0.17015 0.0746,0.33386 0.27322,1.22809 0.73612,2.51147 1.31327,3.64103 l 0.15362,0.30066 -0.11752,0.0258 c -0.24548,0.054 -0.20817,0.069 -0.31089,-0.12531 z"
       id="path7547" /><path
       style="display:inline;fill:#000000;stroke-width:0.0165365"
       d="m 46.891986,53.47028 -0.138866,-0.15194 0.239241,-0.2426 c 0.95568,-0.96909 1.848553,-2.05639 2.557593,-3.11452 l 0.08502,-0.12688 0.178128,0.0923 c 0.09797,0.0507 0.180806,0.0944 0.184077,0.097 0.0033,0.003 -0.0668,0.1112 -0.155707,0.24133 -0.745188,1.0906 -1.563693,2.09001 -2.446639,2.98738 l -0.363977,0.36992 z"
       id="path7545" /><path
       style="display:inline;fill:#000000;stroke-width:0.0165365"
       d="m 67.653528,54.38184 c -0.30278,-0.60218 -0.66949,-1.50362 -0.93609,-2.30111 -0.18415,-0.55087 -0.42953,-1.41009 -0.42953,-1.50405 0,-0.0203 0.0434,-0.0454 0.15328,-0.0889 0.0843,-0.0334 0.16153,-0.0607 0.17159,-0.0607 0.0101,0 0.0381,0.08 0.0623,0.17777 0.28751,1.16099 0.69482,2.30038 1.22526,3.42753 0.0772,0.16408 0.14021,0.30368 0.13998,0.31022 -2.3e-4,0.007 -0.0749,0.0428 -0.16596,0.0806 l -0.16554,0.0687 z"
       id="path7543" /><path
       style="display:inline;fill:#000000;stroke-width:0.0165365"
       d="m 83.841358,55.2787 c -0.0364,-0.004 -0.15172,-0.0141 -0.25632,-0.0235 -0.39887,-0.0358 -0.86241,-0.1162 -1.29614,-0.22471 -0.20309,-0.0508 -0.3022,-0.0905 -0.8599,-0.34403 -0.69385,-0.31547 -1.02454,-0.4567 -1.31493,-0.56158 -0.45202,-0.16327 -1.3235,-0.81618 -1.97077,-1.4765 -0.69294,-0.70692 -1.19517,-1.41628 -1.64295,-2.32055 -0.78888,-1.59311 -1.08627,-3.37931 -0.86038,-5.16764 0.0541,-0.42795 0.0401,-0.39169 0.22249,-0.57719 l 0.16105,-0.16377 -0.0387,0.19684 c -0.19444,0.98811 -0.21445,2.09752 -0.0557,3.09073 0.40953,2.56301 1.91632,4.80818 4.10894,6.12248 1.11023,0.6655 2.2654,1.04819 3.58841,1.18879 0.33257,0.0353 1.20156,0.0403 1.52963,0.009 0.48853,-0.047 0.98091,-0.13259 1.4056,-0.24421 3.16599,-0.83209 5.5332,-3.41249 6.05883,-6.60446 0.0754,-0.4578 0.0979,-0.74717 0.0991,-1.27331 0.001,-0.49961 -0.0137,-0.73087 -0.0743,-1.15755 -0.18436,-1.29795 -0.69388,-2.53786 -1.47831,-3.59744 -0.5346,-0.72212 -1.22199,-1.37173 -1.97599,-1.86738 -1.02039,-0.67078 -2.14982,-1.07658 -3.41478,-1.22691 -0.34994,-0.0416 -1.25037,-0.0415 -1.60403,2.3e-4 -1.92911,0.22743 -3.5951,1.09039 -4.84141,2.50777 -1.69408,1.92663 -2.24995,4.61804 -1.45349,7.03762 0.65248,1.98218 2.16005,3.5854 4.07982,4.33867 0.57282,0.22476 1.11759,0.36017 1.77703,0.44171 0.33605,0.0416 1.14776,0.0414 1.48811,-2.1e-4 0.96047,-0.11754 1.8116,-0.39584 2.60866,-0.85298 1.0124,-0.58064 1.8758,-1.43882 2.44679,-2.432 1.17857,-2.05001 1.16566,-4.53341 -0.034,-6.54165 -0.41993,-0.70299 -1.01046,-1.34996 -1.67655,-1.83681 -1.28596,-0.93993 -2.90987,-1.35064 -4.46938,-1.13038 -1.14985,0.1624 -2.212,0.64107 -3.08441,1.39002 -0.21178,0.18181 -0.62078,0.60759 -0.7788,0.81075 -0.70126,0.90161 -1.09239,1.8584 -1.23327,3.01686 -0.0311,0.25577 -0.0259,0.97835 0.009,1.25677 0.13499,1.07428 0.51508,1.99444 1.17833,2.85254 0.18291,0.23666 0.64947,0.70767 0.89112,0.89964 1.59962,1.27071 3.72817,1.56203 5.57487,0.76297 0.40048,-0.17328 0.8474,-0.44208 1.19681,-0.71982 0.22329,-0.17748 0.65312,-0.60646 0.82048,-0.81884 1.12638,-1.4294 1.44063,-3.27453 0.84208,-4.94433 -0.0997,-0.27814 -0.33557,-0.75789 -0.49379,-1.00435 -0.56205,-0.87553 -1.38995,-1.55942 -2.34358,-1.93594 -0.57792,-0.22817 -1.13564,-0.33233 -1.77695,-0.33186 -0.50897,3.8e-4 -0.8556,0.0477 -1.31257,0.17924 -1.14398,0.32927 -2.11353,1.06807 -2.72122,2.07358 -0.33953,0.5618 -0.55331,1.19269 -0.6312,1.86269 -0.0327,0.28106 -0.0238,0.88353 0.0167,1.13791 0.15924,0.99944 0.57959,1.83053 1.27287,2.51665 0.35124,0.34761 0.69725,0.59298 1.143,0.81056 0.41337,0.20177 0.82011,0.32859 1.28158,0.3996 0.23482,0.0361 0.88807,0.0413 1.11621,0.009 0.7801,-0.11092 1.45579,-0.39025 2.04225,-0.84427 0.18786,-0.14544 0.52101,-0.47217 0.6688,-0.65592 0.83701,-1.04067 1.11109,-2.38887 0.74295,-3.65456 -0.20277,-0.69715 -0.63495,-1.3665 -1.18851,-1.84072 -0.55944,-0.47925 -1.26118,-0.79352 -1.98109,-0.8872 -0.25414,-0.0331 -0.69665,-0.0326 -0.95675,9.6e-4 -1.99564,0.2577 -3.39912,2.07986 -3.11296,4.04161 0.0519,0.35586 0.14785,0.66284 0.31268,1.00045 0.46422,0.95084 1.30115,1.60009 2.34815,1.8216 0.19942,0.0422 0.24368,0.0455 0.61185,0.0463 0.26227,5.1e-4 0.43893,-0.007 0.5209,-0.0214 1.4147,-0.25276 2.44194,-1.29243 2.63773,-2.66965 0.0311,-0.21912 0.0311,-0.55634 -1.6e-4,-0.79472 -0.15522,-1.18404 -1.00487,-2.16306 -2.13321,-2.45798 -0.30143,-0.0788 -0.40639,-0.0914 -0.75241,-0.0902 -0.28348,9.2e-4 -0.34765,0.006 -0.53085,0.0451 -0.56263,0.11887 -1.00866,0.35855 -1.40482,0.75489 -0.43748,0.43769 -0.67994,0.92261 -0.76947,1.5389 -0.0341,0.23471 -0.0233,0.6081 0.0245,0.84505 0.20451,1.0142 0.95389,1.77763 1.96653,2.00341 0.23407,0.0522 0.73123,0.0517 0.97352,-8.8e-4 0.43856,-0.0952 0.82479,-0.29498 1.14284,-0.59101 0.37368,-0.3478 0.61756,-0.80048 0.70673,-1.3118 0.0323,-0.18525 0.0311,-0.55158 -0.003,-0.74755 -0.13671,-0.79779 -0.70599,-1.46043 -1.46849,-1.70934 -0.42499,-0.13873 -0.91901,-0.13266 -1.33253,0.0164 -0.89289,0.3218 -1.44779,1.21057 -1.32172,2.11696 0.041,0.29474 0.18944,0.65848 0.36108,0.8848 0.2774,0.36574 0.69792,0.62462 1.14057,0.70214 0.76547,0.13406 1.51618,-0.24033 1.85791,-0.92657 0.12199,-0.24497 0.16871,-0.45352 0.1667,-0.74414 -10e-4,-0.17271 -0.01,-0.2459 -0.0427,-0.37226 -0.15005,-0.57223 -0.56194,-0.992 -1.12272,-1.1442 -0.18977,-0.0515 -0.5553,-0.0518 -0.74299,-5.1e-4 -0.49217,0.13438 -0.85995,0.48255 -1.01723,0.963 -0.0421,0.12847 -0.0461,0.16261 -0.0469,0.39688 -7.9e-4,0.2243 0.004,0.27173 0.0379,0.37975 0.11968,0.38114 0.34656,0.651 0.69473,0.82634 0.325,0.16366 0.74487,0.16364 1.08786,0 0.46438,-0.22163 0.74124,-0.76143 0.6444,-1.25638 -0.0962,-0.49177 -0.50168,-0.85741 -0.98338,-0.88681 -0.35888,-0.0219 -0.69963,0.14336 -0.8936,0.43337 -0.25193,0.37666 -0.21248,0.85479 0.0961,1.16458 0.34109,0.34245 0.85079,0.3534 1.18471,0.0255 0.24209,-0.23775 0.29859,-0.57893 0.14629,-0.88336 -0.0683,-0.13646 -0.20029,-0.26663 -0.33323,-0.32855 -0.0849,-0.0395 -0.11479,-0.0443 -0.27704,-0.0446 -0.16307,-2.5e-4 -0.19169,0.004 -0.27645,0.044 -0.13204,0.0619 -0.25032,0.178 -0.31487,0.30913 -0.0484,0.0984 -0.0536,0.12325 -0.0536,0.25805 0,0.13142 0.006,0.1609 0.0484,0.24769 0.0572,0.11639 0.16082,0.22247 0.26996,0.27621 0.11456,0.0564 0.3415,0.0558 0.45749,-0.001 0.1812,-0.0892 0.28383,-0.26563 0.2701,-0.46436 -0.009,-0.1313 -0.0512,-0.21862 -0.14881,-0.30861 -0.0914,-0.0842 -0.16859,-0.11029 -0.30168,-0.10181 -0.079,0.005 -0.12331,0.0185 -0.18367,0.0558 -0.16724,0.1034 -0.22354,0.34103 -0.11842,0.49988 0.0621,0.0938 0.19982,0.1603 0.30066,0.14517 0.0834,-0.0125 0.16819,-0.0643 0.20462,-0.12508 0.0243,-0.0405 0.024,-0.0404 -0.0148,0.003 -0.11895,0.13222 -0.30685,0.13911 -0.43019,0.0158 -0.20384,-0.20384 -0.0417,-0.54746 0.25826,-0.54746 0.10121,0 0.18089,0.0351 0.25663,0.1132 0.15264,0.1573 0.15472,0.36481 0.005,0.53097 -0.0988,0.1099 -0.20987,0.1558 -0.35228,0.14557 -0.13434,-0.01 -0.22367,-0.0536 -0.31156,-0.1535 -0.20695,-0.23511 -0.13475,-0.60617 0.14791,-0.76018 0.0735,-0.04 0.11264,-0.0494 0.22918,-0.0548 0.19178,-0.009 0.30318,0.0326 0.43127,0.16069 0.12733,0.12734 0.16899,0.2389 0.16105,0.43127 -0.007,0.17572 -0.0582,0.29432 -0.17804,0.41412 -0.33191,0.33191 -0.88121,0.22521 -1.08857,-0.21143 -0.11115,-0.23405 -0.0877,-0.50312 0.0637,-0.72973 0.0822,-0.12307 0.17265,-0.19962 0.31392,-0.26563 0.36414,-0.17014 0.80165,-0.0459 1.02999,0.29246 0.10833,0.16054 0.14861,0.29071 0.14968,0.48368 0.003,0.49265 -0.36875,0.88878 -0.87783,0.93609 -0.46421,0.0431 -0.93428,-0.30368 -1.05494,-0.77834 -0.032,-0.12598 -0.0318,-0.38331 4.3e-4,-0.5201 0.0706,-0.29933 0.28583,-0.57041 0.57272,-0.72116 0.32675,-0.17171 0.74695,-0.16725 1.09326,0.0116 0.18868,0.0974 0.40682,0.31494 0.50334,0.50186 0.39124,0.75774 -0.021,1.65416 -0.86362,1.87798 -0.17663,0.0469 -0.46089,0.051 -0.64179,0.009 -0.52448,-0.12133 -0.9187,-0.4965 -1.07981,-1.02763 -0.0407,-0.13433 -0.0452,-0.17381 -0.0454,-0.40515 -3.2e-4,-0.2968 0.0268,-0.42556 0.13899,-0.66027 0.0869,-0.18182 0.18243,-0.31319 0.33224,-0.45701 0.15108,-0.14504 0.23923,-0.20553 0.43393,-0.29776 0.23532,-0.11147 0.3999,-0.14616 0.68822,-0.14505 0.20457,7.9e-4 0.26406,0.007 0.40514,0.0446 0.98358,0.25995 1.52274,1.31243 1.17325,2.29028 -0.28335,0.79277 -1.09969,1.30106 -1.94762,1.21267 -0.88335,-0.0921 -1.59023,-0.74535 -1.76585,-1.63194 -0.0302,-0.1522 -0.0303,-0.60747 -2.1e-4,-0.76068 0.0555,-0.2831 0.17437,-0.56817 0.34118,-0.81847 0.17066,-0.2561 0.52232,-0.56166 0.81838,-0.71111 0.13521,-0.0683 0.40814,-0.15998 0.57487,-0.19319 0.20267,-0.0404 0.63853,-0.0403 0.83081,2.4e-4 0.31658,0.0667 0.59533,0.18204 0.8599,0.35588 0.17307,0.11372 0.48893,0.42561 0.60824,0.60058 0.1747,0.25621 0.30826,0.57097 0.37767,0.89009 0.043,0.19784 0.0439,0.72448 0.002,0.92604 -0.20653,0.98245 -0.94381,1.73447 -1.91991,1.95828 -0.31097,0.0713 -0.7802,0.0758 -1.0876,0.0104 -1.46993,-0.31269 -2.3979,-1.76692 -2.07833,-3.257 0.23225,-1.08294 1.09881,-1.94642 2.19801,-2.19022 0.4524,-0.10034 0.85372,-0.10039 1.30378,-1.6e-4 0.26293,0.0585 0.43531,0.12096 0.7041,0.25494 1.53636,0.76579 2.14653,2.6676 1.36027,4.23973 -0.26365,0.52716 -0.69895,1.00394 -1.20074,1.31516 -0.74793,0.46388 -1.63856,0.61983 -2.5005,0.43784 -0.53196,-0.11231 -1.07254,-0.37195 -1.49397,-0.71754 -0.15979,-0.13104 -0.4437,-0.42635 -0.5697,-0.59257 -0.39654,-0.52315 -0.64686,-1.16458 -0.7144,-1.83063 -0.0245,-0.24105 -0.0119,-0.69627 0.0254,-0.91807 0.0926,-0.55156 0.28874,-1.04596 0.59693,-1.50481 0.84425,-1.25699 2.39582,-1.88909 3.91339,-1.59428 1.53406,0.29801 2.75507,1.4758 3.12711,3.01641 0.0871,0.36059 0.1021,0.50503 0.10143,0.97565 -7e-4,0.49133 -0.0255,0.69463 -0.13235,1.08445 -0.33594,1.22576 -1.20836,2.24412 -2.37251,2.76937 -0.38901,0.17552 -0.90537,0.31651 -1.32619,0.36211 -0.20674,0.0224 -0.74541,0.0224 -0.95215,0 -0.78449,-0.085 -1.57669,-0.39904 -2.21349,-0.87742 -0.86287,-0.64821 -1.47835,-1.60351 -1.71571,-2.66301 -0.0889,-0.39701 -0.10078,-0.51815 -0.10073,-1.03103 0,-0.5448 0.0146,-0.67596 0.12596,-1.13275 0.1512,-0.62037 0.42891,-1.20542 0.82234,-1.7324 0.3113,-0.417 0.83348,-0.89652 1.28618,-1.18114 1.79717,-1.12988 4.11305,-0.9858 5.80206,0.36098 0.22889,0.18252 0.60363,0.55635 0.78506,0.78316 0.6301,0.7877 1.01066,1.72104 1.126,2.76159 0.0248,0.22395 0.0251,0.81854 4.3e-4,1.0418 -0.20731,1.87845 -1.30668,3.46217 -2.98795,4.30435 -2.00162,1.00266 -4.42477,0.70037 -6.16651,-0.76927 -0.17561,-0.14817 -0.54426,-0.5177 -0.68281,-0.68443 -0.75876,-0.91305 -1.19782,-1.94806 -1.34606,-3.17312 -0.0268,-0.22106 -0.0267,-0.99327 0,-1.22369 0.0865,-0.74446 0.27253,-1.38658 0.58942,-2.03399 0.86735,-1.77205 2.56565,-3.02407 4.54,-3.34696 0.37187,-0.0608 0.56311,-0.0749 1.017,-0.0748 0.47709,1.7e-4 0.72493,0.0215 1.14249,0.0985 1.96086,0.36164 3.64827,1.63071 4.56158,3.43069 0.71319,1.40555 0.89898,3.00331 0.52878,4.5472 -0.62768,2.61766 -2.76383,4.62399 -5.44737,5.11632 -0.47235,0.0866 -0.64747,0.10083 -1.2485,0.10105 -0.58862,2.1e-4 -0.7182,-0.009 -1.17409,-0.0843 -1.78722,-0.2947 -3.4214,-1.28635 -4.52814,-2.74777 -0.80979,-1.06929 -1.3035,-2.33518 -1.44939,-3.7162 -0.01,-0.091 -0.022,-0.33652 -0.0276,-0.5457 -0.0513,-1.91921 0.66115,-3.80702 1.9821,-5.25177 1.3628,-1.49051 3.32023,-2.39652 5.35081,-2.47666 1.5587,-0.0615 3.03906,0.31043 4.36907,1.09772 0.59267,0.35083 1.05067,0.70914 1.57263,1.23035 0.44117,0.44052 0.72361,0.78537 1.04492,1.27577 1.06431,1.62444 1.51437,3.584 1.26792,5.52058 -0.23915,1.87925 -1.12163,3.63878 -2.48683,4.9584 -1.25837,1.21636 -2.84561,2.01173 -4.5783,2.29421 -0.49946,0.0814 -0.66757,0.0942 -1.30172,0.0991 -0.33197,0.003 -0.63335,0.002 -0.66973,-0.002 z"
       id="path7541" /><path
       style="display:inline;fill:#000000;stroke-width:0.0165365"
       d="m 64.694288,55.80554 c -0.44074,-0.87949 -0.91721,-2.07343 -1.24068,-3.10887 -0.1413,-0.45229 -0.31599,-1.07614 -0.30454,-1.08759 0.017,-0.017 0.38425,-0.0901 0.39386,-0.0784 0.006,0.007 0.0462,0.14649 0.0902,0.31021 0.31034,1.15589 0.81083,2.49654 1.34229,3.59561 0.0855,0.17677 0.14972,0.32646 0.14277,0.33266 -0.0243,0.0217 -0.31738,0.21411 -0.32606,0.21411 -0.005,0 -0.0489,-0.08 -0.0978,-0.17777 z"
       id="path7539" /><path
       style="display:inline;fill:#000000;stroke-width:0.0165365"
       d="m 49.193977,56.34167 -0.119256,-0.18679 0.400376,-0.4047 c 1.332382,-1.34675 2.489233,-2.79168 3.434366,-4.28959 0.05739,-0.0909 0.106721,-0.16818 0.10963,-0.17161 0.0076,-0.009 0.425361,0.10003 0.443255,0.11571 0.01647,0.0144 -0.06186,0.14351 -0.39814,0.65612 -0.811683,1.2373 -1.730096,2.39695 -2.792206,3.52562 -0.356329,0.37866 -0.921458,0.94273 -0.944068,0.9423 -0.0081,-1.6e-4 -0.06837,-0.0843 -0.133957,-0.18706 z"
       id="path7537" /><path
       style="display:inline;fill:#000000;stroke-width:0.0165365"
       d="m 85.217658,57.05112 c -0.082,-0.0643 -0.13876,-0.11855 -0.12607,-0.12048 0.0127,-0.002 0.14586,-0.0152 0.29593,-0.0294 3.68361,-0.34946 6.89242,-2.67408 8.35531,-6.053 0.3965,-0.91584 0.65283,-1.9014 0.76541,-2.94298 0.0363,-0.33582 0.0505,-1.27391 0.0249,-1.63931 -0.14677,-2.09101 -0.9136,-3.99816 -2.25979,-5.6202 -0.22967,-0.27672 -0.87923,-0.92628 -1.15595,-1.15594 -1.56662,-1.3002 -3.38182,-2.04486 -5.39088,-2.21155 -0.13643,-0.0113 -0.45641,-0.0206 -0.71107,-0.0206 -0.50141,0 -0.79402,0.0189 -1.2568,0.0813 -1.31908,0.17769 -2.59313,0.64146 -3.71048,1.35065 -0.11264,0.0715 -0.2064,0.12787 -0.20837,0.12529 -0.002,-0.003 0.0395,-0.0954 0.0922,-0.20632 l 0.0958,-0.20165 0.17043,-0.10097 c 0.27747,-0.16437 0.92521,-0.4805 1.24931,-0.60971 0.8642,-0.34456 1.74437,-0.5565 2.6997,-0.65009 0.34709,-0.034 1.4934,-0.0287 1.81075,0.008 0.52819,0.0617 0.95031,0.13518 1.35535,0.23587 2.78227,0.69166 5.09899,2.54074 6.40013,5.10822 1.01972,2.01218 1.32928,4.30417 0.88219,6.5319 -0.20975,1.04516 -0.62783,2.15421 -1.1626,3.08405 -0.79042,1.37435 -1.92727,2.58027 -3.26623,3.46466 -1.38529,0.915 -3.03536,1.50701 -4.66982,1.67544 l -0.13025,0.0134 z"
       id="path7535" /><path
       style="display:inline;fill:#000000;stroke-width:0.0165365"
       d="M 61.488428,57.60782 C 60.884009,56.40135 60.465369,55.39854 60.061219,54.1891 59.84235,53.53412 59.530813,52.45933 59.48244,52.19233 l -0.01123,-0.062 0.12173,-1.6e-4 c 0.06695,0 0.170617,-0.005 0.230368,-0.0104 l 0.108639,-0.0103 0.06275,0.24603 c 0.452603,1.77466 1.221085,3.77806 2.057331,5.36339 0.0742,0.1406 0.13485,0.25978 0.13485,0.26483 0,0.005 -0.0775,0.0815 -0.17219,0.16998 l -0.17219,0.16079 -0.354061,-0.70674 z"
       id="path7533" /><path
       style="display:inline;fill:#000000;stroke-width:0.0165365"
       d="m 87.150908,58.95839 c -0.0527,-0.0645 -0.0933,-0.119 -0.0904,-0.12117 0.003,-0.002 0.16169,-0.0435 0.35268,-0.0917 1.5697,-0.39674 3.05992,-1.10594 4.35596,-2.07304 1.6118,-1.2027 2.9089,-2.7933 3.75487,-4.60446 0.91027,-1.94883 1.29251,-4.15015 1.08298,-6.23689 -0.0132,-0.13123 -0.022,-0.24056 -0.0196,-0.24297 0.002,-0.002 0.0817,0.33335 0.17623,0.74611 l 0.17185,0.75049 -0.0197,0.41373 c -0.0842,1.76419 -0.49248,3.35884 -1.25993,4.92123 -1.14587,2.33281 -3.00249,4.25037 -5.32395,5.49872 -0.64849,0.34872 -1.30753,0.6291 -2.05356,0.87366 -0.34264,0.11232 -0.94972,0.28355 -1.00532,0.28355 -0.0145,0 -0.0695,-0.0528 -0.12213,-0.11724 z"
       id="path7531" /><path
       style="display:inline;fill:#000000;stroke-width:0.0165365"
       d="m 88.756288,61.10716 c -0.0432,-0.0741 -0.0765,-0.13691 -0.0738,-0.13956 0.003,-0.003 0.1533,-0.0544 0.33478,-0.11493 1.6791,-0.56033 3.24061,-1.41186 4.60541,-2.51145 0.53419,-0.43038 1.19484,-1.05217 1.65312,-1.55589 1.05664,-1.16142 1.92776,-2.49831 2.562,-3.93189 0.43115,-0.97452 0.80802,-2.18976 0.98695,-3.18245 l 0.0275,-0.15248 0.13028,0.11763 c 0.0717,0.0647 0.13028,0.11997 0.13028,0.12283 0,0.0331 -0.12078,0.57369 -0.18991,0.84999 -1.0522,4.20511 -3.91114,7.75888 -7.81713,9.71699 -0.48331,0.24228 -1.11234,0.51414 -1.59238,0.6882 -0.20792,0.0754 -0.65569,0.22775 -0.66933,0.22775 -0.005,0 -0.0445,-0.0606 -0.0877,-0.13474 z"
       id="path7529" /><path
       style="display:inline;fill:#000000;stroke-width:0.0165365"
       d="M 58.924083,61.43674 C 58.575424,60.86279 58.235175,60.25309 57.872479,59.55237 L 57.704118,59.2271 57.558453,59.1936 c -1.35254,-0.31141 -2.950663,-0.55057 -4.356351,-0.65193 -0.06184,-0.004 -0.06872,10e-4 -0.289388,0.23439 -0.275137,0.29086 -0.935821,0.92672 -1.382212,1.33027 l -0.329345,0.29774 -0.08926,-0.26316 -0.08926,-0.26317 0.0548,-0.0479 c 0.212782,-0.18604 0.677469,-0.62344 1.00321,-0.9443 l 0.386167,-0.38037 -0.09678,-0.0126 c -0.05323,-0.007 -0.52094,-0.0181 -1.039358,-0.0248 l -0.942578,-0.0122 -0.127673,-0.23978 -0.127673,-0.23978 0.259964,-0.0132 c 0.43862,-0.0223 1.977739,0.007 2.434893,0.0465 l 0.107871,0.009 0.274439,-0.30243 c 0.923614,-1.01778 1.792416,-2.11246 2.490843,-3.13842 l 0.118201,-0.17363 -0.09906,-0.34727 c -0.134917,-0.47294 -0.339483,-1.29787 -0.452583,-1.82509 -0.05145,-0.23981 -0.09131,-0.43818 -0.08859,-0.44082 0.0027,-0.003 0.123918,0.019 0.269326,0.0481 l 0.264379,0.0529 0.101854,0.45405 c 0.134367,0.59897 0.352043,1.45874 0.375186,1.48189 0.01507,0.0151 0.50203,-0.77706 0.804682,-1.30897 0.09315,-0.16371 0.187441,-0.32928 0.209534,-0.36794 l 0.04017,-0.0703 0.168802,1.7e-4 c 0.09284,0 0.21909,0.005 0.280554,0.0107 l 0.111752,0.0106 -0.08524,0.15882 c -0.266573,0.49671 -0.722326,1.26355 -1.099904,1.85067 -0.130491,0.2029 -0.237255,0.3781 -0.237255,0.38934 0,0.0112 0.04414,0.15775 0.09809,0.32561 0.418176,1.30104 0.834306,2.3692 1.384796,3.5546 0.09503,0.20464 0.181632,0.38073 0.192442,0.39132 0.01081,0.0106 0.19453,0.0642 0.408263,0.11905 0.731697,0.18792 1.588683,0.44181 2.111818,0.62563 l 0.119175,0.0419 -0.184561,0.20529 c -0.126795,0.14104 -0.192397,0.20228 -0.209597,0.19568 -0.262989,-0.10091 -1.913589,-0.58155 -1.932439,-0.5627 -0.01561,0.0156 0.522506,0.99609 0.851158,1.55087 l 0.173719,0.29324 -0.148873,0.2406 -0.148871,0.24059 -0.173608,-0.28579 z m -1.499717,-2.79988 c 0,-0.005 -0.01775,-0.0439 -0.03945,-0.0868 -0.09194,-0.18177 -0.441532,-0.98893 -0.613916,-1.41745 -0.235205,-0.58468 -0.400287,-1.0309 -0.603521,-1.63131 l -0.160364,-0.47376 -0.147135,0.20903 c -0.55351,0.78636 -1.336981,1.77116 -2.023861,2.54392 l -0.247251,0.27816 0.102875,0.0115 c 0.05658,0.006 0.225656,0.0236 0.375725,0.0384 0.631927,0.0622 1.514584,0.18496 2.207617,0.30705 0.327597,0.0577 1.104767,0.2134 1.114833,0.22334 0.0099,0.01 0.03445,0.008 0.03445,-0.002 z"
       id="path7527" /><path
       style="display:inline;fill:#000000;stroke-width:0.0165365"
       d="m 103.63848,61.40644 c 1.33807,-1.80044 2.42667,-3.79396 3.19387,-5.84884 0.0789,-0.21139 0.14937,-0.3844 0.15654,-0.38447 0.0121,-1.6e-4 0.30037,0.18709 0.33189,0.21555 0.0164,0.0148 -0.0786,0.27885 -0.29101,0.80959 -0.52475,1.31106 -1.14147,2.53319 -1.89425,3.75378 -0.24264,0.39343 -0.71713,1.10585 -0.76699,1.15162 -0.0212,0.0194 -0.23198,0.16124 -0.46845,0.31512 -0.23647,0.15389 -0.45138,0.29388 -0.47758,0.31108 -0.0308,0.0202 0.0457,-0.0943 0.21598,-0.32343 z"
       id="path7525" /><path
       style="display:inline;fill:#000000;stroke-width:0.0165365"
       d="m 57.804704,63.44543 c -1.787146,-0.49989 -3.754991,-0.82228 -5.523177,-0.90487 -0.113688,-0.005 -0.259685,-0.0137 -0.324437,-0.0187 l -0.117731,-0.009 -0.05394,-0.20963 c -0.02967,-0.1153 -0.05678,-0.21707 -0.06026,-0.22617 -0.0039,-0.0102 0.03619,-0.015 0.105526,-0.0125 1.705121,0.0612 3.260442,0.26275 4.892935,0.63411 0.596615,0.13571 1.544103,0.38933 1.544103,0.41331 0,0.007 -0.04651,0.1004 -0.103353,0.20857 l -0.103353,0.19667 z"
       id="path7523" /><path
       style="display:inline;fill:#000000;stroke-width:0.0165365"
       d="m 90.035118,63.78249 c -0.009,-0.0234 -0.0382,-0.0943 -0.0651,-0.15755 -0.0439,-0.10316 -0.0461,-0.11614 -0.0213,-0.12611 0.0152,-0.006 0.10951,-0.0396 0.20956,-0.0744 1.1659,-0.40537 2.4248,-1.01605 3.53284,-1.71373 3.66021,-2.30466 6.361042,-5.93479 7.496972,-10.07653 0.0337,-0.12278 0.064,-0.22616 0.0674,-0.22973 0.007,-0.008 0.26848,0.16172 0.281,0.18198 0.005,0.007 -0.0296,0.14587 -0.0759,0.30763 -0.74071,2.58574 -2.044182,4.93649 -3.867482,6.97482 -0.28549,0.31917 -1.03254,1.06475 -1.34118,1.33854 -1.76431,1.56515 -3.73171,2.73831 -5.90396,3.52052 -0.29375,0.10578 -0.29343,0.10572 -0.31289,0.0545 z"
       id="path7521" /><path
       style="display:inline;fill:#000000;stroke-width:0.0165365"
       d="m 56.440446,66.85511 c -0.518246,-0.14263 -1.358632,-0.3238 -1.984375,-0.42778 -0.581021,-0.0966 -1.46801,-0.20232 -1.963704,-0.23414 -0.09777,-0.006 -0.177826,-0.0122 -0.177899,-0.0133 0,-0.001 -0.0112,-0.0906 -0.02472,-0.19902 -0.01352,-0.10843 -0.02068,-0.20105 -0.0159,-0.20583 0.01175,-0.0118 0.522575,0.0247 0.908916,0.0649 1.106721,0.1151 2.228777,0.31816 3.299023,0.59705 0.213734,0.0557 0.390982,0.10319 0.393886,0.10555 0.0029,0.002 -0.01985,0.0887 -0.05056,0.19195 -0.04523,0.152 -0.06194,0.18819 -0.08796,0.19053 -0.01767,0.002 -0.151188,-0.0299 -0.296709,-0.0699 z"
       id="path7519" /><path
       style="display:inline;fill:#000000;stroke-width:0.0165365"
       d="m 90.780948,66.76311 c -0.021,-0.10114 -0.0321,-0.18923 -0.0245,-0.19576 0.008,-0.007 0.0956,-0.0401 0.19562,-0.0745 0.94104,-0.32423 1.77677,-0.67702 2.64583,-1.11691 2.97009,-1.50335 5.48724,-3.64832 7.428922,-6.33048 1.19627,-1.65248 2.15083,-3.50452 2.79275,-5.41853 0.0763,-0.22737 0.1422,-0.42299 0.14652,-0.4347 0.005,-0.0144 0.0574,0.0117 0.16112,0.081 0.0843,0.0562 0.15563,0.10418 0.15855,0.10652 0.01,0.008 -0.0667,0.24694 -0.19866,0.61926 -0.95887,2.70525 -2.41899,5.12679 -4.357342,7.22644 -0.31056,0.3364 -0.98016,1.00332 -1.27919,1.27405 -2.00145,1.81208 -4.28991,3.21189 -6.77917,4.14671 -0.27146,0.10195 -0.83342,0.30085 -0.84998,0.30085 -10e-4,0 -0.0194,-0.0828 -0.0404,-0.1839 z"
       id="path7517" /><path
       style="display:inline;fill:#000000;stroke-width:0.0165365"
       d="m 95.790678,68.29067 -0.12228,-0.006 0.26284,-0.14554 c 0.2433,-0.13471 0.69068,-0.39438 0.92351,-0.53602 0.0541,-0.0329 0.10061,-0.0577 0.10329,-0.055 0.003,0.003 -0.0416,0.14154 -0.0984,0.30861 l -0.10329,0.30375 -0.11575,0.0707 -0.11576,0.0707 -0.30592,-0.003 c -0.16826,-0.002 -0.36096,-0.005 -0.42822,-0.009 z"
       id="path7515" /><path
       style="display:inline;fill:#000000;stroke-width:0.0165365"
       d="m 55.936084,70.09433 c -0.978867,-0.29477 -2.343212,-0.54991 -3.431315,-0.64167 -0.486504,-0.041 -0.453674,-0.0339 -0.445284,-0.0963 0.0039,-0.0291 0.01404,-0.10759 0.0225,-0.17442 0.0085,-0.0668 0.01916,-0.1253 0.02378,-0.12992 0.01229,-0.0123 0.611581,0.0406 0.994314,0.0877 0.830376,0.10227 1.550828,0.23525 2.323372,0.42885 0.28934,0.0725 0.809987,0.21622 0.818222,0.22585 0.0024,0.003 -0.0073,0.0851 -0.02166,0.18288 -0.03069,0.20962 -0.0078,0.20017 -0.28393,0.11701 z"
       id="path7513" /><path
       style="display:inline;fill:#000000;stroke-width:0.0165365"
       d="m 55.712842,73.05384 c -0.237521,-0.0818 -0.820107,-0.25237 -1.107943,-0.32444 -0.992435,-0.24849 -2.0901,-0.41447 -2.988964,-0.45196 -0.143247,-0.006 -0.26045,-0.0156 -0.26045,-0.0213 0,-0.006 0.02216,-0.0814 0.04924,-0.16799 l 0.04924,-0.15752 0.103725,0.006 c 1.417698,0.0771 2.642587,0.29415 3.965323,0.70273 l 0.33866,0.1046 -0.0059,0.13735 c -0.0032,0.0755 -0.01067,0.15431 -0.01654,0.17506 l -0.01066,0.0377 z"
       id="path7511" /><path
       style="display:inline;fill:#000000;stroke-width:0.0165365"
       d="m 55.564014,75.72447 c -1.035262,-0.41785 -2.252939,-0.72386 -3.373437,-0.84776 -0.482667,-0.0534 -0.612724,-0.0607 -1.244369,-0.0698 -0.356981,-0.005 -0.649056,-0.0123 -0.649056,-0.0158 0,-0.004 0.03834,-0.0744 0.0852,-0.15755 l 0.0852,-0.15114 0.481173,0.0107 c 0.53182,0.0118 0.813086,0.0294 1.258386,0.0786 0.926424,0.10253 1.875158,0.31123 2.75332,0.60568 0.307793,0.1032 0.778079,0.28011 0.798238,0.30027 0.0073,0.007 0.01117,0.0839 0.0085,0.17008 l -0.0048,0.15678 z"
       id="path7509" /><path
       style="display:inline;fill:#000000;stroke-width:0.0165365"
       d="m 55.778988,78.30466 c -1.027342,-0.55051 -2.167141,-0.94011 -3.303921,-1.12934 -0.642549,-0.10696 -1.126084,-0.14643 -1.789308,-0.14606 -0.61046,3.3e-4 -1.190508,0.0452 -1.6845,0.13025 -0.08064,0.0139 -0.149502,0.0224 -0.153038,0.0188 -0.0035,-0.004 0.04186,-0.0739 0.100882,-0.15644 0.121056,-0.16922 0.07988,-0.15063 0.430276,-0.19432 0.393529,-0.0491 0.571349,-0.0599 1.132747,-0.0691 0.58105,-0.009 0.936981,0.004 1.372526,0.0533 1.322808,0.14858 2.53002,0.50271 3.720746,1.09146 l 0.340828,0.16852 0.02566,0.17166 c 0.01411,0.0944 0.02485,0.17274 0.02387,0.17406 -9.92e-4,0.001 -0.09853,-0.0494 -0.216766,-0.11279 z"
       id="path7507" /><path
       style="display:inline;fill:#000000;stroke-width:0.0165365"
       d="M 25.885206,87.50619 25.674366,87.2947 V 87.052 86.80931 l 0.220539,-0.33229 0.220538,-0.33228 -0.0065,0.76538 c -0.0036,0.42096 -0.008,0.77487 -0.0097,0.78647 -0.0017,0.0116 -0.09804,-0.0741 -0.214004,-0.1904 z"
       id="path7505" /><path
       style="display:inline;fill:#000000;stroke-width:0.0165365"
       d="m 49.801058,95.78452 c -0.502827,-0.0147 -0.90718,-0.064 -1.416195,-0.17267 -2.082143,-0.4446 -3.929611,-1.70244 -5.123105,-3.48804 -1.136659,-1.70058 -1.616338,-3.72782 -1.363608,-5.76296 0.20447,-1.64652 0.876457,-3.19303 1.943644,-4.47311 0.276866,-0.3321 0.424671,-0.47763 0.624074,-0.61449 0.431671,-0.29626 1.406151,-0.99859 1.581415,-1.13975 0.104593,-0.0842 0.253421,-0.20993 0.330729,-0.27931 0.15018,-0.13476 0.305855,-0.22293 0.686263,-0.38867 0.905159,-0.39435 1.84742,-0.63427 2.827734,-0.72 0.388885,-0.034 1.128833,-0.0338 1.522978,4.5e-4 1.395821,0.12125 2.721403,0.55083 3.917517,1.26955 0.381917,0.22948 0.961269,0.64495 1.169516,0.83869 0.07688,0.0715 0.08217,0.0824 0.136062,0.28104 0.03084,0.11365 0.05407,0.20864 0.05161,0.21109 -0.0025,0.002 -0.06326,-0.0485 -0.135125,-0.1132 -0.875718,-0.78864 -2.007984,-1.44571 -3.132228,-1.81767 -0.706912,-0.23389 -1.443277,-0.37772 -2.207415,-0.43118 -0.522711,-0.0366 -1.312325,-0.004 -1.843815,0.0754 -1.825945,0.27367 -3.518003,1.11943 -4.808872,2.40366 -1.346946,1.34002 -2.201472,3.07183 -2.432908,4.9306 -0.156048,1.2533 -0.03644,2.46048 0.362094,3.65456 0.328905,0.98545 0.804006,1.83659 1.486123,2.66237 0.202102,0.24466 0.750198,0.79276 0.994865,0.99486 1.302712,1.07608 2.770687,1.68625 4.43177,1.84208 0.369739,0.0347 1.229754,0.0259 1.570964,-0.0161 1.570247,-0.19304 2.976877,-0.79745 4.147015,-1.78193 0.214891,-0.18079 0.612976,-0.57344 0.818627,-0.80745 0.667016,-0.759 1.185915,-1.66691 1.506914,-2.63664 0.154805,-0.46765 0.287045,-1.09104 0.343974,-1.6215 0.03263,-0.30404 0.0274,-1.21203 -0.0087,-1.51638 -0.107026,-0.9015 -0.339059,-1.69777 -0.719529,-2.46922 -0.722559,-1.46509 -1.855459,-2.60239 -3.301873,-3.31471 -0.788243,-0.38818 -1.548634,-0.60825 -2.439127,-0.70592 -0.319295,-0.035 -1.054524,-0.0394 -1.364258,-0.008 -1.899634,0.19194 -3.613537,1.10792 -4.77396,2.55141 -0.709075,0.88204 -1.186201,1.91822 -1.392341,3.02376 -0.08787,0.47127 -0.101028,0.63086 -0.100863,1.2237 1.65e-4,0.61722 0.01612,0.79577 0.11595,1.29811 0.494856,2.49011 2.352059,4.457 4.784014,5.06657 0.530164,0.13288 0.978138,0.18686 1.549101,0.18665 0.578513,-2.2e-4 1.024215,-0.0558 1.570963,-0.19581 2.278499,-0.58358 4.035179,-2.42194 4.496741,-4.7058 0.140851,-0.69696 0.159073,-1.34775 0.05753,-2.05486 -0.257716,-1.7947 -1.3405,-3.37626 -2.914779,-4.25745 -1.248473,-0.69883 -2.730816,-0.90563 -4.09334,-0.57107 -1.85063,0.45441 -3.316984,1.78571 -3.915858,3.55521 -0.640067,1.89121 -0.181291,3.95451 1.192702,5.36407 1.817411,1.86445 4.695702,2.06996 6.710193,0.4791 0.201163,-0.15885 0.604932,-0.55985 0.763455,-0.75821 0.414072,-0.51812 0.740804,-1.17317 0.90407,-1.81251 0.109463,-0.42865 0.137282,-0.66082 0.13849,-1.15578 0.0011,-0.46184 -0.01031,-0.58473 -0.09082,-0.97566 -0.304113,-1.47667 -1.329726,-2.72137 -2.71705,-3.29744 -0.767628,-0.31874 -1.634904,-0.41476 -2.466097,-0.27301 -0.966229,0.16477 -1.884242,0.68407 -2.524224,1.42788 -1.190839,1.38405 -1.365305,3.34397 -0.434552,4.8817 0.317427,0.52443 0.814245,1.02239 1.338203,1.34127 0.999862,0.60852 2.238406,0.74222 3.323828,0.35881 1.105226,-0.39041 1.971825,-1.26936 2.329225,-2.36243 0.130563,-0.39931 0.181512,-0.72585 0.180837,-1.159 -8.93e-4,-0.5714 -0.111624,-1.05253 -0.359656,-1.5627 -0.17506,-0.36007 -0.359114,-0.62126 -0.644991,-0.91532 -0.544108,-0.55967 -1.186941,-0.89324 -1.968436,-1.02145 -0.222916,-0.0366 -0.734351,-0.0411 -0.967383,-0.008 -0.884143,0.12358 -1.698788,0.6062 -2.22605,1.31878 -0.503778,0.68084 -0.722407,1.56213 -0.592314,2.38761 0.170558,1.08223 0.881084,1.98835 1.876084,2.39254 1.447158,0.58786 3.094819,-0.0445 3.74415,-1.43707 0.157361,-0.33748 0.236529,-0.66942 0.25189,-1.05616 0.01548,-0.38976 -0.03893,-0.74109 -0.165547,-1.06895 -0.34375,-0.89008 -1.08471,-1.51327 -2.003512,-1.68506 -0.220456,-0.0412 -0.676966,-0.0418 -0.89775,-10e-4 -0.887126,0.16341 -1.619956,0.78656 -1.910197,1.62429 -0.101193,0.29207 -0.118752,0.4068 -0.118887,0.77676 -1.66e-4,0.35219 0.01203,0.43815 0.102891,0.72745 0.135981,0.43296 0.449048,0.86921 0.823031,1.14688 0.153363,0.11386 0.509065,0.28906 0.694532,0.34208 0.438383,0.12533 0.908182,0.1165 1.331185,-0.025 0.58903,-0.19706 1.093653,-0.68804 1.306457,-1.27113 0.154997,-0.42471 0.16199,-0.92001 0.01896,-1.34265 -0.199153,-0.58846 -0.661361,-1.05009 -1.239998,-1.23844 -0.205131,-0.0668 -0.363226,-0.0909 -0.589777,-0.0902 -0.506676,0.002 -0.951864,0.18751 -1.306129,0.54524 -0.497227,0.50209 -0.641438,1.25322 -0.365995,1.90632 0.191972,0.45519 0.609802,0.81443 1.101616,0.94715 0.119175,0.0322 0.179558,0.0378 0.396875,0.037 0.294918,-10e-4 0.419318,-0.0271 0.65248,-0.13632 0.176702,-0.0828 0.270299,-0.14696 0.411831,-0.2823 0.823742,-0.78771 0.5018,-2.14655 -0.576486,-2.43322 -0.157462,-0.0419 -0.442902,-0.05 -0.595312,-0.017 -0.32391,0.0702 -0.631157,0.27745 -0.808714,0.54549 -0.454596,0.68625 -0.123539,1.60622 0.653478,1.81594 0.128648,0.0347 0.398093,0.0383 0.527306,0.007 0.05002,-0.0121 0.154203,-0.052 0.23151,-0.0886 0.183805,-0.0871 0.377166,-0.27557 0.467107,-0.45535 0.249871,-0.49946 0.06331,-1.08781 -0.420264,-1.32535 -0.356213,-0.17498 -0.753139,-0.11192 -1.022494,0.16245 -0.319643,0.3256 -0.331691,0.79585 -0.02869,1.11976 0.209183,0.22362 0.527076,0.29631 0.813167,0.18595 0.118975,-0.0459 0.28109,-0.19087 0.343017,-0.30675 0.170694,-0.31939 0.05164,-0.71533 -0.263007,-0.87467 -0.08668,-0.0439 -0.11088,-0.0484 -0.260906,-0.0484 -0.147399,2e-5 -0.174347,0.005 -0.248047,0.0441 -0.10724,0.0572 -0.211976,0.1662 -0.259417,0.27009 -0.05287,0.11578 -0.05251,0.2992 7.94e-4,0.40892 0.05019,0.1033 0.179868,0.21814 0.286214,0.25347 0.27312,0.0907 0.562283,-0.10006 0.563333,-0.37165 8.43e-4,-0.2189 -0.155125,-0.38125 -0.36659,-0.38159 -0.179255,-3e-4 -0.358795,0.21919 -0.299766,0.36646 0.01261,0.0315 0.01566,0.0224 0.01651,-0.049 0.0012,-0.10136 0.02915,-0.16418 0.09925,-0.22317 0.142073,-0.11954 0.34988,-0.0885 0.448492,0.067 0.09132,0.144 0.0784,0.29402 -0.03657,0.42463 -0.208311,0.23666 -0.592781,0.12143 -0.658988,-0.19749 -0.03256,-0.15681 0.02051,-0.31239 0.143486,-0.42064 0.185216,-0.16303 0.459978,-0.15217 0.642697,0.0254 0.109642,0.10656 0.147605,0.19963 0.147907,0.36263 2.15e-4,0.11686 -0.0062,0.14581 -0.05419,0.24322 -0.05921,0.12027 -0.143806,0.20426 -0.266772,0.26485 -0.06335,0.0312 -0.102584,0.0373 -0.241029,0.0371 -0.139672,-1.7e-4 -0.177483,-0.006 -0.243357,-0.0388 -0.129985,-0.0643 -0.22099,-0.15735 -0.289575,-0.29613 -0.05899,-0.11935 -0.06238,-0.13481 -0.06238,-0.28417 0,-0.14333 0.0049,-0.16827 0.0528,-0.26942 0.165457,-0.34928 0.581997,-0.49504 0.939385,-0.32873 0.299343,0.13931 0.477611,0.48067 0.422293,0.80863 -0.06836,0.4053 -0.418931,0.69817 -0.835705,0.69817 -0.370653,0 -0.69586,-0.23504 -0.835159,-0.60358 -0.05198,-0.13753 -0.06404,-0.40415 -0.02507,-0.55397 0.06164,-0.23699 0.21214,-0.44612 0.417534,-0.5802 0.193449,-0.12628 0.301235,-0.15578 0.566723,-0.15511 0.189969,4.8e-4 0.239263,0.006 0.330729,0.0387 0.32092,0.11372 0.582513,0.38044 0.689259,0.70275 0.03917,0.11826 0.04453,0.16032 0.04453,0.34942 0,0.18862 -0.0054,0.23119 -0.04401,0.34727 -0.06307,0.18959 -0.149874,0.32808 -0.301531,0.48109 -0.108989,0.10996 -0.160612,0.14756 -0.289388,0.21075 -0.254605,0.12493 -0.486155,0.16488 -0.735514,0.12688 -0.597827,-0.0911 -1.033791,-0.55255 -1.103484,-1.16804 -0.063,-0.55641 0.252044,-1.12016 0.772755,-1.3828 0.177856,-0.0897 0.349693,-0.13164 0.576754,-0.14076 0.240704,-0.01 0.380358,0.009 0.574351,0.0776 0.486219,0.17135 0.870032,0.61233 0.986638,1.13359 0.04111,0.18376 0.03599,0.52681 -0.0106,0.71134 -0.0847,0.33547 -0.304267,0.68014 -0.569229,0.89356 -0.159486,0.12847 -0.438653,0.27096 -0.631873,0.32252 -0.188575,0.0503 -0.55908,0.0626 -0.758567,0.0251 -0.680917,-0.12795 -1.233387,-0.64843 -1.410408,-1.32872 -0.0566,-0.21753 -0.07048,-0.55724 -0.03181,-0.77899 0.07176,-0.41156 0.258579,-0.76317 0.560708,-1.0553 0.182252,-0.17621 0.306996,-0.26322 0.529985,-0.36968 0.569519,-0.27189 1.243433,-0.2554 1.811286,0.0443 0.539795,0.28492 0.916808,0.77405 1.072185,1.39103 0.04122,0.16368 0.04485,0.20437 0.04469,0.50062 -1.65e-4,0.28091 -0.0051,0.34271 -0.03859,0.47956 -0.141947,0.58053 -0.480017,1.0637 -0.971275,1.38815 -0.587696,0.38814 -1.34198,0.48343 -2.023437,0.25561 -0.768812,-0.25702 -1.363072,-0.89179 -1.580638,-1.68839 -0.405369,-1.48423 0.615795,-2.99773 2.180638,-3.23199 0.201596,-0.0302 0.631628,-0.025 0.83021,0.0101 1.21537,0.2144 2.126631,1.15798 2.316204,2.39836 0.02182,0.14276 0.02588,0.24943 0.01889,0.49609 -0.01402,0.4946 -0.09013,0.79885 -0.31029,1.24027 -0.155934,0.31265 -0.294091,0.50199 -0.56119,0.76909 -0.266969,0.26697 -0.456252,0.40511 -0.769084,0.56131 -0.454202,0.22679 -0.794066,0.31266 -1.293321,0.32678 -0.360206,0.0102 -0.538093,-0.006 -0.839882,-0.0779 -0.932329,-0.22125 -1.716506,-0.85811 -2.140921,-1.73875 -0.37678,-0.7818 -0.431652,-1.65634 -0.156411,-2.49279 0.370019,-1.12448 1.304787,-1.98098 2.474588,-2.2674 0.581366,-0.14234 1.239685,-0.12998 1.820203,0.0342 1.256808,0.3554 2.242864,1.37759 2.566039,2.66008 0.199017,0.78977 0.133916,1.65648 -0.180806,2.40711 -0.551367,1.31505 -1.776273,2.23015 -3.209586,2.39782 -0.949307,0.11104 -1.930866,-0.12453 -2.724955,-0.65399 -0.281902,-0.18796 -0.407515,-0.28983 -0.636685,-0.51635 -0.648987,-0.64148 -1.05366,-1.42507 -1.210829,-2.3446 -0.04439,-0.25972 -0.0619,-0.84993 -0.0334,-1.12629 0.17523,-1.69954 1.327704,-3.15151 2.959879,-3.72908 1.439287,-0.50932 3.065363,-0.25965 4.297316,0.65981 0.602825,0.44991 1.070934,1.00513 1.406588,1.66834 0.775143,1.53159 0.691057,3.33472 -0.224562,4.81551 -0.118631,0.19186 -0.307396,0.44537 -0.476389,0.63981 -0.828852,0.95361 -2.000415,1.56438 -3.281562,1.71077 -0.258541,0.0296 -0.822848,0.0339 -1.077251,0.008 -2.009165,-0.20197 -3.729908,-1.52836 -4.450629,-3.43064 -0.236379,-0.6239 -0.346429,-1.23327 -0.347919,-1.9265 -9.43e-4,-0.4376 0.02562,-0.71711 0.105545,-1.11061 0.429285,-2.11362 2.058753,-3.81352 4.166217,-4.34629 0.510138,-0.12897 0.877441,-0.17322 1.438672,-0.17332 0.701531,-1.6e-4 1.213062,0.0816 1.862589,0.29759 0.653527,0.21731 1.291653,0.5658 1.849846,1.01022 0.232673,0.18526 0.720399,0.67426 0.899021,0.90138 0.761619,0.96841 1.189781,2.01355 1.316821,3.21433 0.05072,0.47935 0.0266,1.17631 -0.05779,1.6699 -0.291737,1.70649 -1.302012,3.24104 -2.763364,4.19741 -0.839257,0.54924 -1.702595,0.86667 -2.75986,1.01476 -0.262121,0.0367 -1.232178,0.0424 -1.504818,0.009 -1.121908,-0.13824 -2.113093,-0.50743 -3.017904,-1.1241 -1.24011,-0.8452 -2.167064,-2.1063 -2.630479,-3.57872 -0.115858,-0.36811 -0.210524,-0.81987 -0.266179,-1.27025 -0.04172,-0.33758 -0.04158,-1.18006 2.48e-4,-1.52135 0.109207,-0.8911 0.346942,-1.67008 0.744174,-2.43844 0.845765,-1.63596 2.296143,-2.87376 4.060443,-3.46532 2.350393,-0.78807 4.946921,-0.32175 6.902205,1.2396 1.540938,1.23049 2.536049,3.01822 2.780316,4.99489 0.194566,1.57447 -0.110796,3.18627 -0.872512,4.6054 -1.124763,2.09551 -3.159885,3.57811 -5.525765,4.02556 -0.612773,0.11589 -1.099907,0.15152 -1.794205,0.13125 z"
       id="path7503" /><path
       style="display:inline;fill:#000000;stroke-width:0.0165365"
       d="m 49.528207,97.61114 c -1.828669,-0.11244 -3.501486,-0.66543 -4.99401,-1.65091 -0.61433,-0.40562 -1.025722,-0.74338 -1.580282,-1.29741 -0.405522,-0.40514 -0.672712,-0.70904 -0.952897,-1.0838 -1.656877,-2.2162 -2.353115,-4.96627 -1.95512,-7.72253 0.111912,-0.77504 0.353933,-1.67336 0.643194,-2.38739 0.184143,-0.45454 0.154182,-0.41305 0.355523,-0.49233 0.09571,-0.0377 0.174022,-0.0666 0.174022,-0.0643 0,0.002 -0.03796,0.0852 -0.08436,0.18427 -0.405864,0.86632 -0.715088,1.92153 -0.849317,2.89823 -0.107656,0.78334 -0.120133,1.74496 -0.03275,2.5239 0.359483,3.20431 2.226717,6.03613 5.017856,7.61001 2.034376,1.14715 4.446285,1.52836 6.713802,1.06113 3.475786,-0.7162 6.241511,-3.25388 7.217972,-6.62283 0.139915,-0.48272 0.258117,-1.0885 0.317399,-1.62663 0.02421,-0.21977 0.03006,-0.40701 0.03006,-0.96243 0,-0.37926 0.0044,-0.68436 0.0099,-0.67799 0.0054,0.006 0.06404,0.0913 0.130264,0.18873 l 0.120414,0.17714 -0.0089,0.52566 c -0.01114,0.65762 -0.05775,1.09913 -0.178367,1.68983 -0.377226,1.84734 -1.28233,3.53054 -2.618586,4.86972 -1.68949,1.69318 -3.929421,2.69981 -6.350997,2.85414 -0.238343,0.0152 -0.915263,0.0187 -1.124762,0.006 z"
       id="path7501" /><path
       style="display:inline;fill:#000000;stroke-width:0.0165365"
       d="m 66.588778,98.33447 c 0.003,-0.007 0.0757,-0.13056 0.16199,-0.2748 l 0.15694,-0.26225 0.0406,0.20955 c 0.0223,0.11525 0.0373,0.21268 0.0332,0.21651 -0.0158,0.0149 -0.39753,0.12281 -0.39277,0.11099 z"
       id="path7499" /><path
       style="display:inline;fill:#000000;stroke-width:0.0165365"
       d="m 44.552782,98.28197 -0.560191,-0.14642 -0.236684,-0.14167 c -2.406012,-1.44017 -4.256089,-3.68592 -5.23773,-6.35791 -0.507008,-1.38005 -0.758124,-2.79838 -0.759766,-4.29121 -9.92e-4,-0.90721 0.07375,-1.67582 0.245251,-2.52181 0.07335,-0.36185 0.256184,-1.09407 0.279983,-1.12131 0.008,-0.009 0.295092,-0.0524 0.302011,-0.0454 0.0037,0.004 -0.02376,0.11073 -0.06104,0.23784 -0.465857,1.58843 -0.604095,3.37421 -0.388731,5.02168 0.527427,4.03466 2.994384,7.51729 6.588482,9.30104 0.195544,0.097 0.374137,0.18478 0.396875,0.19496 0.08298,0.0371 -0.01924,0.0138 -0.568459,-0.12975 z"
       id="path7497" /><path
       style="display:inline;fill:#000000;stroke-width:0.0165365"
       d="m 40.185108,98.37707 c -2.639159,-2.38154 -4.325479,-5.59864 -4.794706,-9.14718 -0.09968,-0.75382 -0.132025,-1.34581 -0.119722,-2.19108 0.01451,-0.9969 0.0968,-1.78733 0.282341,-2.71198 l 0.06802,-0.339 0.155664,0.004 c 0.08562,0.002 0.157452,0.006 0.159633,0.008 0.0022,0.002 -0.02119,0.12446 -0.05194,0.27147 -0.147216,0.70385 -0.240716,1.41453 -0.287908,2.18838 -0.0216,0.35424 -0.0215,1.31135 1.82e-4,1.67496 0.102764,1.72364 0.488905,3.36407 1.166798,4.95686 0.162444,0.38169 0.516456,1.09431 0.724052,1.45752 0.818725,1.43242 1.895513,2.74929 3.081043,3.768 0.09833,0.0845 0.192583,0.1664 0.209452,0.18201 0.02935,0.0272 0.02399,0.0306 -0.124063,0.0799 -0.08511,0.0284 -0.16216,0.0515 -0.171233,0.0515 -0.0091,0 -0.142999,-0.11422 -0.297615,-0.25374 z"
       id="path7495" /><path
       style="display:inline;fill:#000000;stroke-width:0.0165365"
       d="m 49.577816,99.72218 c -0.807295,-0.027 -1.642285,-0.14209 -2.447395,-0.33726 l -0.165365,-0.0401 -0.168037,-0.17922 c -0.09242,-0.0986 -0.16598,-0.18131 -0.163464,-0.18387 0.0025,-0.003 0.111619,0.0253 0.24245,0.062 0.707629,0.19827 1.522792,0.33652 2.354546,0.39936 0.371212,0.028 1.249828,0.0237 1.653645,-0.008 2.023201,-0.15948 3.899979,-0.80171 5.567864,-1.90532 2.611675,-1.72809 4.385164,-4.41513 4.945466,-7.49295 l 0.05481,-0.30111 0.110942,0.12422 c 0.0659,0.0738 0.1109,0.13897 0.11083,0.16054 -2e-4,0.0621 -0.11042,0.58588 -0.18167,0.86331 -0.667287,2.59842 -2.17456,4.85143 -4.328226,6.46966 -2.166759,1.62806 -4.83421,2.46097 -7.586401,2.36883 z"
       id="path7493" /><path
       style="display:inline;fill:#000000;stroke-width:0.0165365"
       d="m 37.338144,99.48663 c -0.574011,-0.60793 -0.89388,-0.98516 -1.349465,-1.59146 -1.153677,-1.53534 -2.063923,-3.28164 -2.66353,-5.10994 -0.472318,-1.44018 -0.73578,-2.80681 -0.857558,-4.44831 -0.028,-0.37744 -0.02811,-1.85881 -1.65e-4,-2.23242 0.06252,-0.83593 0.143915,-1.48911 0.270703,-2.17238 l 0.03489,-0.18801 0.167248,0.0118 c 0.09199,0.006 0.170357,0.0148 0.174158,0.0185 0.0038,0.004 -0.01651,0.1351 -0.04514,0.29198 -0.278049,1.52349 -0.353927,3.08942 -0.225356,4.65086 0.236007,2.86619 1.220892,5.71315 2.80885,8.1194 0.614551,0.93124 1.277507,1.7553 2.056235,2.55591 l 0.282481,0.29043 -0.156043,0.0775 c -0.08582,0.0426 -0.158173,0.0775 -0.160774,0.0775 -0.0026,0 -0.154037,-0.15813 -0.336523,-0.3514 z"
       id="path7491" /><path
       style="display:inline;fill:#000000;stroke-width:0.0165365"
       d="m 34.592319,101.14854 c -0.704992,-0.77717 -1.47546,-1.79045 -2.059802,-2.70894 -2.674514,-4.2039 -3.76533,-9.20527 -3.087059,-14.15411 0.06909,-0.5041 0.229342,-1.41799 0.25275,-1.4414 0.0029,-0.003 0.08468,0.0186 0.181778,0.0478 0.124715,0.0375 0.176515,0.0605 0.176453,0.0784 0,0.0139 -0.01879,0.1221 -0.04164,0.24034 -0.258285,1.33633 -0.376034,2.57907 -0.376034,3.96875 0,1.09519 0.0584,1.91635 0.212062,2.98164 0.484227,3.35707 1.817978,6.58584 3.840306,9.29668 0.437912,0.587 0.903729,1.15084 1.348095,1.63177 l 0.04855,0.0525 -0.167149,0.0839 c -0.09193,0.0461 -0.170502,0.0839 -0.174602,0.0839 -0.0041,0 -0.07327,-0.0725 -0.15371,-0.16123 z"
       id="path7489" /><path
       style="display:inline;fill:#000000;stroke-width:0.0165365"
       d="m 49.216807,101.9879 c -0.06175,-0.0839 -0.109956,-0.15472 -0.107138,-0.15743 0.0028,-0.003 0.191162,0.003 0.418538,0.0122 0.454503,0.0189 1.149411,-3.3e-4 1.653646,-0.0457 2.989122,-0.26929 5.724715,-1.42795 7.978841,-3.37944 0.29337,-0.25398 0.891622,-0.8407 1.165112,-1.14265 1.317812,-1.45492 2.314992,-3.18046 2.900362,-5.01881 0.055,-0.17281 0.11723,-0.37304 0.13824,-0.44497 l 0.0382,-0.13078 0.12108,0.10447 c 0.14575,0.12576 0.14806,0.071 -0.0254,0.6019 -0.48976,1.49904 -1.22613,2.90642 -2.168271,4.14405 -1.08692,1.42783 -2.436582,2.63748 -3.980086,3.5672 -0.95651,0.57615 -2.054377,1.06835 -3.100585,1.39006 -1.055486,0.32456 -1.959711,0.50161 -3.108854,0.60873 -0.194588,0.0181 -0.53869,0.0297 -1.050416,0.0353 l -0.761028,0.008 z"
       id="path7487" /><path
       style="display:inline;fill:#000000;stroke-width:0.0165365"
       d="m 31.308478,102.74431 c -1.191437,-1.43446 -2.196746,-2.97632 -3.043211,-4.66742 l -0.231761,-0.46302 -0.02758,-0.57051 c -0.01517,-0.31378 -0.02653,-0.57215 -0.02525,-0.57416 0.0013,-0.002 0.06456,0.13938 0.140629,0.31419 0.878717,2.01949 2.085786,3.98093 3.496586,5.68184 0.123517,0.14892 0.224578,0.27559 0.224578,0.28148 0,0.0122 -0.33932,0.18363 -0.363567,0.18363 -0.0087,0 -0.08544,-0.0837 -0.17042,-0.18603 z"
       id="path7485" /><path
       style="display:inline;fill:#000000;stroke-width:0.0165365"
       d="m 51.040357,104.68182 c -0.05556,-0.0826 -0.09854,-0.15204 -0.09551,-0.15426 0.003,-0.002 0.132,-0.0132 0.286616,-0.0245 2.054407,-0.14921 4.188807,-0.73728 6.101953,-1.68122 2.238974,-1.1047 4.196293,-2.7027 5.741032,-4.68712 1.01413,-1.30278 1.8755,-2.85459 2.42784,-4.37389 0.0529,-0.14552 0.10105,-0.27022 0.10699,-0.27711 0.006,-0.007 0.0714,0.0327 0.14545,0.0879 l 0.13465,0.10045 -0.0471,0.12705 c -0.12818,0.3459 -0.18887,0.49973 -0.3117,0.78998 -0.70022,1.65462 -1.64063,3.15376 -2.84464,4.5347 -0.13232,0.15176 -0.47175,0.50711 -0.75431,0.78966 -0.60517,0.60517 -1.008733,0.96378 -1.588597,1.41166 -2.530837,1.95479 -5.53402,3.14877 -8.735369,3.47293 -0.500677,0.0507 -0.447726,0.0616 -0.567324,-0.11631 z"
       id="path7483" /><path
       style="display:inline;fill:#000000;stroke-width:0.0165365"
       d="m 52.911136,107.56676 c -0.05601,-0.0875 -0.09816,-0.16284 -0.09366,-0.16733 0.0045,-0.005 0.136895,-0.0297 0.294218,-0.056 2.517244,-0.42075 4.976629,-1.3421 7.112586,-2.66456 0.116578,-0.0722 0.214302,-0.12864 0.217166,-0.12547 0.0029,0.003 -0.09401,0.15832 -0.215283,0.34477 l -0.22049,0.339 -0.219919,0.12517 c -1.81994,1.03585 -3.889998,1.80599 -5.975288,2.22304 -0.198053,0.0396 -0.762978,0.14047 -0.787013,0.14051 -0.0058,10e-6 -0.05631,-0.0716 -0.112318,-0.15914 z"
       id="path7481" /><path
       style="display:inline;fill:#000000;stroke-width:0.0165365"
       d="m 55.020532,110.65834 -0.124002,-0.17643 0.507375,-0.12741 c 0.56851,-0.14276 0.567242,-0.14241 1.066557,-0.29168 0.198409,-0.0593 0.363069,-0.10522 0.36591,-0.10203 0.0042,0.005 -0.335685,0.49679 -0.360086,0.52119 -0.01872,0.0187 -1.268457,0.35279 -1.319778,0.35279 -0.0066,0 -0.06777,-0.0794 -0.135976,-0.17643 z"
       id="path7388" /></g></svg>
